<svg width="820" height="634" viewBox="0 0 820 634" fill="none" xmlns="http://www.w3.org/2000/svg">
<path d="M819.263 566.616H0V566.987H819.263V566.616Z" fill="#EBEBEB"/>
<path d="M737.172 590.457H682.904V590.827H737.172V590.457Z" fill="#EBEBEB"/>
<path d="M542.712 594.487H528.474V594.858H542.712V594.487Z" fill="#EBEBEB"/>
<path d="M681.267 576.707H649.823V577.077H681.267V576.707Z" fill="#EBEBEB"/>
<path d="M156.725 579.196H85.957V579.567H156.725V579.196Z" fill="#EBEBEB"/>
<path d="M181.696 579.196H171.324V579.567H181.696V579.196Z" fill="#EBEBEB"/>
<path d="M368.914 585.449H215.417V585.82H368.914V585.449Z" fill="#EBEBEB"/>
<path d="M388.331 500.531H71.948C69.4695 500.527 67.094 499.634 65.3429 498.047C63.5919 496.461 62.6084 494.311 62.6084 492.07V89.8818C62.63 87.6533 63.623 85.5224 65.3717 83.9522C67.1204 82.3819 69.4836 81.4989 71.948 81.4951H388.331C390.812 81.4951 393.192 82.3865 394.947 83.9732C396.701 85.5599 397.687 87.7119 397.687 89.9558V492.07C397.687 494.314 396.701 496.466 394.947 498.053C393.192 499.639 390.812 500.531 388.331 500.531ZM71.948 81.7915C69.5781 81.7954 67.3068 82.6495 65.6326 84.1663C63.9583 85.6831 63.018 87.7386 63.018 89.8818V492.07C63.018 494.213 63.9583 496.269 65.6326 497.785C67.3068 499.302 69.5781 500.156 71.948 500.16H388.331C390.702 500.156 392.975 499.303 394.652 497.786C396.329 496.27 397.273 494.214 397.277 492.07V89.8818C397.273 87.7373 396.329 85.6818 394.652 84.1654C392.975 82.649 390.702 81.7954 388.331 81.7915H71.948Z" fill="#EBEBEB"/>
<path d="M742.76 500.531H426.361C423.881 500.527 421.504 499.634 419.75 498.048C417.996 496.462 417.009 494.313 417.005 492.07V89.8818C417.031 87.6519 418.027 85.5211 419.779 83.9512C421.53 82.3814 423.895 81.4989 426.361 81.4951H742.76C745.222 81.5028 747.581 82.3875 749.326 83.9574C751.071 85.5272 752.062 87.6558 752.083 89.8818V492.07C752.083 494.309 751.102 496.456 749.355 498.042C747.607 499.628 745.236 500.523 742.76 500.531ZM426.361 81.7915C423.989 81.7954 421.716 82.649 420.04 84.1654C418.363 85.6818 417.419 87.7373 417.415 89.8818V492.07C417.419 494.214 418.363 496.27 420.04 497.786C421.716 499.303 423.989 500.156 426.361 500.16H742.76C745.132 500.156 747.405 499.303 749.081 497.786C750.758 496.27 751.702 494.214 751.707 492.07V89.8818C751.702 87.7373 750.758 85.6818 749.081 84.1654C747.405 82.649 745.132 81.7954 742.76 81.7915H426.361Z" fill="#EBEBEB"/>
<path d="M123.971 430.578H240.634C243.328 430.578 245.995 431.058 248.484 431.99C250.973 432.923 253.235 434.289 255.14 436.012C257.045 437.734 258.556 439.779 259.587 442.03C260.617 444.281 261.148 446.693 261.148 449.129V543.961C261.148 548.881 258.987 553.599 255.14 557.079C251.292 560.558 246.074 562.512 240.634 562.512H123.971V430.637V430.578Z" fill="#F0F0F0"/>
<path d="M124.938 430.578H123.005C111.675 430.578 102.49 438.884 102.49 449.129V543.901C102.49 554.147 111.675 562.453 123.005 562.453H124.938C136.268 562.453 145.452 554.147 145.452 543.901V449.129C145.452 438.884 136.268 430.578 124.938 430.578Z" fill="#F5F5F5"/>
<path d="M139.586 562.452H291.854V479.223H139.586V562.452Z" fill="#F0F0F0"/>
<path d="M127.084 566.616H401.521C402.635 566.612 403.702 566.209 404.488 565.495C405.274 564.782 405.716 563.815 405.716 562.808V562.452H240.7L122.89 562.808C122.89 563.815 123.331 564.782 124.117 565.495C124.903 566.209 125.97 566.612 127.084 566.616Z" fill="#E0E0E0"/>
<path d="M247.286 375.872H388.953C392.618 375.81 396.255 376.455 399.621 377.765C402.988 379.074 406.008 381.018 408.478 383.467C410.948 385.915 412.812 388.812 413.947 391.963C415.081 395.115 415.459 398.449 415.055 401.743L405.715 498.056H206.831L216.154 401.743C216.947 394.734 220.552 388.231 226.289 383.463C232.026 378.696 239.496 375.995 247.286 375.872Z" fill="#E0E0E0"/>
<path d="M224.904 375.872H369.34C372.826 375.82 376.284 376.439 379.484 377.688C382.685 378.937 385.556 380.788 387.905 383.117C390.254 385.446 392.029 388.2 393.111 391.197C394.193 394.194 394.557 397.365 394.18 400.499L384.726 498.041H185.825L195.279 400.499C196.032 393.828 199.462 387.637 204.921 383.099C210.381 378.561 217.49 375.99 224.904 375.872Z" fill="#F5F5F5"/>
<path d="M151.793 471.622H272.404C275.829 471.622 279.113 472.852 281.534 475.042C283.956 477.232 285.316 480.201 285.316 483.298V493.833C285.318 495.368 284.986 496.888 284.338 498.306C283.69 499.724 282.739 501.013 281.54 502.099C280.341 503.185 278.917 504.046 277.349 504.634C275.782 505.222 274.101 505.524 272.404 505.524H151.793C146.821 505.524 142.053 503.738 138.538 500.559C135.023 497.38 133.048 493.069 133.048 488.573C133.048 484.077 135.023 479.766 138.538 476.587C142.053 473.408 146.821 471.622 151.793 471.622Z" fill="#E0E0E0"/>
<path d="M292.526 430.578H409.189C414.63 430.578 419.848 432.533 423.695 436.012C427.542 439.491 429.704 444.209 429.704 449.129V543.961C429.704 548.881 427.542 553.599 423.695 557.079C419.848 560.558 414.63 562.512 409.189 562.512H292.526V430.637V430.578Z" fill="#F0F0F0"/>
<path d="M293.493 430.578H291.559C280.23 430.578 271.045 438.884 271.045 449.129V543.901C271.045 554.147 280.23 562.453 291.559 562.453H293.493C304.822 562.453 314.007 554.147 314.007 543.901V449.129C314.007 438.884 304.822 430.578 293.493 430.578Z" fill="#F5F5F5"/>
<path d="M614.464 358.091H502.307V566.616H614.464V358.091Z" fill="#F0F0F0"/>
<path d="M519.085 550.376V374.331H516.496V550.376H519.085Z" fill="#E6E6E6"/>
<path d="M597.931 374.331H516.496V377.295H597.931V374.331Z" fill="#E6E6E6"/>
<path d="M729.21 358.091H617.053V566.616H729.21V358.091Z" fill="#F0F0F0"/>
<path d="M729.226 566.616H744.071V358.091H729.226V566.616Z" fill="#E0E0E0"/>
<path d="M633.831 550.376V374.331H631.242V550.376H633.831Z" fill="#E6E6E6"/>
<path d="M617.068 566.616V360.462H614.48V566.616H617.068Z" fill="#E6E6E6"/>
<path d="M712.677 374.331H631.242V377.295H712.677V374.331Z" fill="#E6E6E6"/>
<path d="M609.548 404.218H603.977V450.3H609.548V404.218Z" fill="#E0E0E0"/>
<path d="M627.539 404.218H621.968V450.3H627.539V404.218Z" fill="#E0E0E0"/>
<path d="M698.192 140.646H126.313V325.108H698.192V140.646Z" fill="#E0E0E0"/>
<path d="M692.949 140.646H121.07V325.108H692.949V140.646Z" fill="#F0F0F0"/>
<path d="M675.794 309.594V156.16L138.226 156.16V309.594H675.794Z" fill="#FAFAFA"/>
<path d="M225.494 309.594L261.116 156.16H339.749L304.127 309.594H225.494Z" fill="white"/>
<path d="M337.307 309.594L372.928 156.16H412.253L376.615 309.594H337.307Z" fill="white"/>
<path d="M577.384 309.594L613.005 156.16H652.33L616.692 309.594H577.384Z" fill="white"/>
<path d="M409.631 633.532C585.089 633.532 727.325 626.022 727.325 616.759C727.325 607.495 585.089 599.985 409.631 599.985C234.174 599.985 91.9375 607.495 91.9375 616.759C91.9375 626.022 234.174 633.532 409.631 633.532Z" fill="#F5F5F5"/>
<path d="M271.995 171.348C276.125 162.799 239.553 155.049 228.493 181.394C218.465 205.295 201.817 211.4 209.65 227.951C218.121 245.865 266.048 248.013 286.857 228.158C303.734 212.052 285.415 205.265 287.774 190.122C290.134 174.979 285.186 170.044 271.995 171.348Z" fill="#263238"/>
<path d="M205.372 222.646C203.472 213.311 207.306 209.458 212.156 204.584C218.71 198.569 223.2 190.969 225.084 182.698C226.061 178.182 228.558 174.049 232.233 170.866C235.909 167.683 240.583 165.605 245.615 164.917C256.429 163.11 267.882 166.31 270.913 170.37C271.396 170.942 271.671 171.635 271.701 172.354C271.73 173.073 271.512 173.783 271.077 174.386L269.701 173.586C269.966 173.227 270.095 172.801 270.068 172.37C270.042 171.94 269.861 171.529 269.554 171.2C266.866 167.585 255.954 164.695 245.926 166.384C238.766 167.585 229.541 171.437 226.69 183.024C224.748 191.542 220.122 199.369 213.368 205.561C208.65 210.303 205.176 213.741 206.995 222.364L205.372 222.646Z" fill="#263238"/>
<path d="M182.843 215.549L181.827 212.585C181.126 210.571 179.855 208.758 178.14 207.325L174.863 204.628C173.827 203.762 172.488 203.25 171.079 203.182C169.669 203.115 168.278 203.495 167.146 204.258L163.639 206.629C162.999 207.062 162.459 207.606 162.052 208.229C161.646 208.852 161.38 209.542 161.27 210.258C161.16 210.975 161.209 211.704 161.413 212.404C161.617 213.103 161.973 213.759 162.46 214.334L164.721 217.001C164.721 217.001 170.03 225.121 177.714 227.936L179.484 226.573C181.177 225.235 182.398 223.477 182.995 221.517C183.592 219.557 183.539 217.482 182.843 215.549Z" fill="#FFC3BD"/>
<path d="M246.532 266.995L245.483 267.721L244.631 268.284L242.993 269.321C241.895 269.973 240.781 270.581 239.716 271.173C237.486 272.332 235.189 273.381 232.834 274.315C227.991 276.246 222.899 277.62 217.678 278.404C212.164 279.242 206.538 279.272 201.014 278.493C198.187 278.091 195.41 277.441 192.723 276.552C192.051 276.359 191.379 276.107 190.724 275.856L189.741 275.485L189.249 275.292L188.709 275.085L188.02 274.789C186.59 274.126 185.272 273.283 184.104 272.285C183.265 271.578 182.492 270.81 181.794 269.988C179.94 267.715 178.441 265.222 177.337 262.579C176.354 260.386 175.6 258.282 174.929 256.223C173.706 252.237 172.716 248.196 171.963 244.117C170.466 236.233 169.628 228.258 169.456 220.261C169.253 218.764 169.689 217.253 170.675 216.036C171.661 214.82 173.123 213.989 174.763 213.713C176.403 213.437 178.097 213.737 179.501 214.552C180.905 215.367 181.912 216.634 182.318 218.097V218.26C185.169 225.358 187.906 232.633 190.789 239.538C192.281 242.976 193.722 246.399 195.361 249.51C196.147 251.066 196.999 252.548 197.802 253.837C198.349 254.781 199.051 255.646 199.883 256.4C199.883 256.4 199.883 256.4 199.769 256.193C199.391 255.839 198.947 255.548 198.458 255.333L198.146 255.185C198.048 255.185 197.852 255.082 197.966 255.111H198.228L198.736 255.23C199.074 255.325 199.419 255.399 199.769 255.452C201.152 255.702 202.554 255.855 203.963 255.911C206.913 255.993 209.862 255.714 212.729 255.082C215.876 254.364 218.938 253.371 221.872 252.118C223.396 251.496 224.904 250.77 226.378 250.044C227.116 249.673 227.837 249.273 228.525 248.888L230.163 247.94L231.441 247.214C234.32 245.558 237.797 244.976 241.14 245.59C244.484 246.203 247.434 247.964 249.373 250.503C251.311 253.042 252.086 256.161 251.535 259.206C250.984 262.251 249.149 264.984 246.417 266.832L246.532 266.995Z" fill="#FFC3BD"/>
<path d="M275.272 610.298C285.644 607.202 294.377 600.86 292.624 589.732C291.854 584.961 308.78 583.094 308.78 583.094C306.863 598.252 308.96 600.875 310.975 604.297C312.991 607.72 312.876 611.914 309.337 612.284C305.142 612.743 304.208 612.284 298.998 612.951C292.902 613.677 288.954 616.551 276.779 616.551C270.209 616.551 271.995 611.276 275.272 610.298Z" fill="#2A9D8F"/>
<path d="M306.814 448.389C308.01 372.465 300.26 331.08 300.26 331.08L238.144 333.881C238.144 333.881 247.336 403.344 263.655 454.509C268.014 481.965 277.829 528.403 284.629 559.594C294.718 558.813 304.694 557.105 314.401 554.497C316.776 527.099 317.202 487.492 306.814 448.389Z" fill="#2A9D8F"/>
<path d="M308.158 590.532C308.158 590.532 310.583 576.189 312.221 554.496C303.978 557.092 295.427 558.803 286.742 559.593C290.281 578.53 292.805 590.591 292.805 590.591C297.771 592.206 303.207 592.185 308.158 590.532Z" fill="#FFC3BD"/>
<path d="M281.237 550.51C281.777 553.118 283.285 559.652 284.776 561.949C284.862 562.082 284.981 562.195 285.123 562.279C285.265 562.364 285.426 562.418 285.595 562.438C297.179 563.757 308.747 561.653 313.45 559.756C313.581 559.708 313.7 559.636 313.799 559.544C313.898 559.452 313.974 559.343 314.023 559.223C315.334 556.081 315.809 549.473 315.957 546.687C315.965 546.536 315.935 546.386 315.869 546.247C315.804 546.108 315.704 545.985 315.577 545.887C315.451 545.788 315.301 545.717 315.14 545.678C314.979 545.64 314.81 545.635 314.646 545.665C303.91 547.464 293.066 548.691 282.17 549.339C282.021 549.355 281.877 549.399 281.748 549.467C281.618 549.536 281.506 549.628 281.418 549.738C281.33 549.849 281.269 549.974 281.238 550.107C281.206 550.24 281.206 550.377 281.237 550.51Z" fill="#263238"/>
<path d="M238.962 244.605C229.754 246.087 215.712 253.125 215.712 253.125C215.712 253.125 208.322 269.128 217.17 280.656C225.887 282.523 230.278 280.997 230.278 280.997L238.962 244.605Z" fill="#263238"/>
<path opacity="0.2" d="M217.17 280.656C225.887 282.523 230.278 280.997 230.278 280.997L229.967 259.408C224.052 266.609 219.12 273.751 217.17 280.656Z" fill="black"/>
<path opacity="0.2" d="M306.486 403.596C299.539 388.23 292.067 375.576 289.2 364.019C284.284 395.446 288.151 424.355 306.847 445.07C307.06 429.778 306.88 415.939 306.486 403.596Z" fill="black"/>
<path d="M401.439 524.091L376.648 540.034C356.412 516.193 326.066 479.772 318.726 463.917C300.079 423.688 262.59 335.006 262.59 335.006L311.254 324.782C311.254 324.782 341.96 350.564 361.77 447.855C378.352 469.163 392.312 500.516 401.439 524.091Z" fill="#2A9D8F"/>
<path d="M400.013 599.66C406.19 588.739 406.272 576.708 399.603 567.225C396.736 563.165 411.302 555.148 411.302 555.148C416.447 569.684 420.642 570.529 424.214 572.781C427.786 575.033 428.146 579.879 425.132 581.523C421.842 583.272 419.039 585.68 416.939 588.562C413.203 593.007 411.106 599.112 405.748 602.92C402.323 605.335 397.293 604.446 400.013 599.66Z" fill="#2A9D8F"/>
<path d="M414.006 561.816C414.006 561.816 409.73 548.214 401.34 527.84C395.005 533.267 387.994 538.01 380.449 541.976C392.296 557.919 400.964 569.373 400.964 569.373C406 567.993 410.515 565.377 414.006 561.816Z" fill="#FFC3BD"/>
<path d="M371.29 535.752C372.928 537.915 377.32 543.324 379.728 544.85C379.869 544.94 380.031 545 380.201 545.026C380.371 545.051 380.546 545.042 380.711 544.998C391.853 541.886 401.439 535.648 404.945 532.137C405.043 532.042 405.118 531.93 405.163 531.807C405.208 531.684 405.223 531.554 405.207 531.425C404.978 528.091 402.389 521.883 401.258 519.29C401.197 519.152 401.101 519.029 400.98 518.929C400.859 518.829 400.714 518.755 400.557 518.713C400.4 518.67 400.234 518.66 400.072 518.683C399.91 518.706 399.755 518.761 399.62 518.845C390.678 524.487 381.377 529.647 371.765 534.3C371.619 534.358 371.489 534.444 371.384 534.552C371.279 534.661 371.201 534.788 371.155 534.926C371.11 535.065 371.099 535.21 371.122 535.353C371.145 535.495 371.202 535.631 371.29 535.752Z" fill="#263238"/>
<path d="M224.904 266.713C227.132 279.826 218.497 289.991 231.786 296.036C229.574 306.008 232.851 325.923 238.11 333.821C245.5 337.451 281.646 332.087 311.189 324.767C310.763 313.358 300.391 290.909 303.274 253.54C303.43 251.496 303.108 249.445 302.331 247.52C301.553 245.595 300.337 243.84 298.762 242.367C297.186 240.895 295.286 239.738 293.184 238.973C291.082 238.207 288.826 237.849 286.561 237.922C284.005 237.922 281.285 238.145 278.533 238.367C268.855 238.929 259.234 240.117 249.744 241.923C246.68 242.575 243.517 243.316 240.519 244.086C235.306 245.478 230.839 248.549 227.961 252.719C225.084 256.888 223.996 261.867 224.904 266.713Z" fill="#263238"/>
<path d="M245.778 256.741C245.778 256.741 255.036 253.689 259.886 261.186C267.964 257.082 279.319 239.731 278.516 238.412C264.998 241.776 245.778 256.741 245.778 256.741Z" fill="white"/>
<path d="M245.778 256.741C245.778 256.741 238.749 255.985 236.767 261.616C236.767 250.503 245.058 243.509 248.679 242.205C247.417 245.109 245.778 256.741 245.778 256.741Z" fill="white"/>
<path d="M274.978 208.999C273.945 217.667 273.782 231.596 278.533 238.426C278.533 238.426 260.51 249.584 245.763 256.741C241.126 247.035 248.663 242.205 248.663 242.205C255.692 239.775 255.627 231.64 254.676 225.417L274.978 208.999Z" fill="#FFC3BD"/>
<path opacity="0.2" d="M254.709 225.417L266.179 216.082C266.564 217.824 266.44 219.627 265.818 221.313C263.832 226.169 260.014 230.236 255.037 232.796C255.217 230.333 255.107 227.859 254.709 225.417Z" fill="black"/>
<path d="M278.681 192.893C277.042 206.969 276.796 212.941 268.768 219.905C256.675 230.381 238.275 225.58 235.243 211.385C232.507 198.597 235.505 177.734 250.711 172.652C265.916 167.57 280.188 178.831 278.681 192.893Z" fill="#FFC3BD"/>
<path d="M275.273 203.191C272.87 201.111 271.466 198.262 271.362 195.256C271.258 192.25 272.462 189.326 274.716 187.114C278.812 183.366 284.547 191.13 284.547 191.13L275.273 203.191Z" fill="#263238"/>
<path d="M256.282 196.79C256.282 197.945 255.512 198.849 254.643 198.82C253.775 198.79 253.185 197.827 253.234 196.686C253.283 195.545 254.004 194.626 254.873 194.656C255.741 194.686 256.331 195.589 256.282 196.79Z" fill="#263238"/>
<path d="M240.65 196.449C240.65 197.59 239.896 198.494 239.012 198.464C238.127 198.434 237.553 197.486 237.603 196.33C237.652 195.175 238.356 194.286 239.241 194.315C240.126 194.345 240.699 195.293 240.65 196.449Z" fill="#263238"/>
<path d="M239.602 194.389L236.587 193.485C236.587 193.485 238.062 195.693 239.602 194.389Z" fill="#263238"/>
<path d="M244.501 196.894C243.234 199.477 241.58 201.89 239.585 204.065C240.215 204.504 240.942 204.813 241.718 204.972C242.493 205.131 243.297 205.135 244.075 204.984L244.501 196.894Z" fill="#ED847E"/>
<path d="M251.268 209.488C250.557 209.579 249.838 209.609 249.121 209.577C249.024 209.573 248.932 209.536 248.865 209.472C248.798 209.409 248.761 209.324 248.761 209.236C248.763 209.192 248.775 209.148 248.796 209.107C248.817 209.066 248.846 209.03 248.883 209C248.919 208.969 248.962 208.946 249.008 208.93C249.055 208.915 249.104 208.908 249.154 208.91C250.732 208.995 252.31 208.745 253.761 208.179C255.212 207.613 256.496 206.747 257.51 205.65C257.537 205.614 257.571 205.583 257.611 205.558C257.651 205.534 257.696 205.517 257.744 205.509C257.791 205.501 257.84 205.501 257.887 205.51C257.934 205.519 257.979 205.537 258.018 205.562C258.059 205.587 258.094 205.619 258.121 205.657C258.149 205.694 258.167 205.736 258.176 205.78C258.185 205.824 258.185 205.869 258.175 205.913C258.164 205.957 258.145 205.999 258.117 206.036C256.418 207.949 253.961 209.188 251.268 209.488Z" fill="#263238"/>
<path d="M281.269 204.687C280.661 205.851 279.786 206.884 278.701 207.717C277.615 208.55 276.346 209.164 274.977 209.518C271.487 210.303 269.865 206.836 270.947 203.369C271.913 200.242 274.912 196.078 278.353 196.834C281.794 197.59 282.957 201.65 281.269 204.687Z" fill="#FFC3BD"/>
<path d="M270.619 172.874C259.589 179.097 247.204 183.095 234.31 184.595C234.31 174.475 256.2 163.11 270.619 172.874Z" fill="#263238"/>
<path d="M262.164 174.105C259.624 182.995 285.103 199.294 280.188 214.971C288.511 203.25 282.514 176.875 282.514 176.875C282.514 176.875 261.05 164.592 262.164 174.105Z" fill="#263238"/>
<path d="M259.542 189.233C259.443 189.221 259.347 189.189 259.263 189.141C259.178 189.092 259.105 189.028 259.05 188.952C258.545 188.237 257.86 187.641 257.051 187.211C256.242 186.781 255.333 186.53 254.397 186.477C254.3 186.481 254.202 186.467 254.111 186.436C254.02 186.405 253.936 186.358 253.866 186.297C253.795 186.236 253.739 186.163 253.701 186.082C253.663 186.001 253.643 185.913 253.643 185.825C253.639 185.735 253.655 185.645 253.69 185.561C253.725 185.477 253.778 185.4 253.847 185.335C253.916 185.269 253.999 185.218 254.091 185.182C254.182 185.147 254.281 185.129 254.381 185.129C255.564 185.175 256.717 185.478 257.744 186.012C258.77 186.546 259.64 187.295 260.279 188.196C260.335 188.269 260.374 188.351 260.394 188.437C260.414 188.524 260.415 188.613 260.397 188.7C260.379 188.787 260.342 188.87 260.288 188.943C260.234 189.017 260.164 189.08 260.083 189.13C260.005 189.178 259.917 189.212 259.824 189.23C259.731 189.248 259.635 189.249 259.542 189.233Z" fill="#263238"/>
<path d="M233.736 188.744C233.544 188.732 233.364 188.658 233.228 188.537C233.158 188.475 233.103 188.401 233.066 188.319C233.028 188.238 233.009 188.151 233.009 188.062C233.009 187.974 233.028 187.887 233.066 187.806C233.103 187.724 233.158 187.65 233.228 187.588C234.045 186.812 235.056 186.224 236.177 185.873C237.297 185.522 238.494 185.42 239.667 185.573C239.859 185.612 240.027 185.718 240.134 185.867C240.242 186.017 240.28 186.199 240.241 186.373C240.221 186.46 240.183 186.543 240.127 186.616C240.072 186.69 240.001 186.753 239.919 186.801C239.836 186.849 239.744 186.882 239.647 186.898C239.551 186.913 239.452 186.911 239.356 186.892C238.426 186.785 237.481 186.878 236.598 187.163C235.715 187.449 234.92 187.92 234.276 188.537C234.134 188.668 233.939 188.742 233.736 188.744Z" fill="#263238"/>
<path d="M255.233 194.73L252.218 193.841C252.218 193.841 253.676 196.049 255.233 194.73Z" fill="#263238"/>
<path opacity="0.2" d="M302.882 260.786C302.587 268.697 302.877 276.617 303.75 284.493C295.557 276.67 285.267 261.897 284.596 254.488L302.882 260.786Z" fill="black"/>
<path d="M356.379 232.959L358.165 223.55L374.337 229.195C374.337 229.195 370.585 237.952 363.687 241.82L361.77 240.723C360.267 239.896 358.997 238.764 358.061 237.416C357.126 236.069 356.55 234.543 356.379 232.959Z" fill="#FFC3BD"/>
<path d="M368.259 218.304L373.584 220.927C374.747 221.498 375.614 222.462 375.994 223.608C376.375 224.755 376.239 225.991 375.616 227.047L374.354 229.195L358.182 223.55L362.032 219.386C362.775 218.587 363.799 218.043 364.933 217.846C366.067 217.649 367.241 217.811 368.259 218.304Z" fill="#FFC3BD"/>
<path d="M299.998 243.701L302.062 245.627L304.307 247.687C305.831 249.035 307.355 250.413 308.928 251.717C312.041 254.37 315.252 256.829 318.48 259.126C321.525 261.285 324.758 263.218 328.147 264.905C330.739 266.223 333.559 267.135 336.488 267.602L332.08 268.343C330.998 268.817 331.064 269.024 331.293 268.861C331.736 268.593 332.143 268.28 332.506 267.928C333.705 266.8 334.801 265.585 335.783 264.297C338.011 261.438 340.273 258.193 342.337 254.829C344.402 251.465 346.597 248.013 348.711 244.457L355.019 233.907V233.818C355.759 232.561 356.969 231.582 358.433 231.058C359.897 230.533 361.52 230.496 363.011 230.954C364.502 231.412 365.765 232.335 366.573 233.557C367.381 234.779 367.683 236.221 367.423 237.626C366.669 241.893 365.637 245.924 364.49 250.028C363.343 254.133 362.114 258.193 360.476 262.267C358.87 266.469 356.965 270.572 354.773 274.551C353.502 276.791 352.062 278.95 350.464 281.011C349.455 282.283 348.326 283.473 347.089 284.568C345.256 286.22 343.093 287.542 340.715 288.464C339.548 288.914 338.297 289.161 337.028 289.191H336.307C329.833 289.225 323.425 288.007 317.513 285.62C314.904 284.611 312.355 283.478 309.878 282.226C307.507 280.962 305.219 279.653 303.012 278.3C298.725 275.585 294.641 272.615 290.789 269.409C288.905 267.839 287.037 266.253 285.251 264.579C284.366 263.749 283.465 262.919 282.596 262.045C281.728 261.171 280.958 260.371 279.893 259.259C277.538 256.902 276.314 253.794 276.493 250.621C276.671 247.447 278.236 244.468 280.843 242.338C283.451 240.208 286.887 239.102 290.396 239.263C293.905 239.424 297.2 240.84 299.555 243.197L299.998 243.701Z" fill="#FFC3BD"/>
<path d="M287.282 237.997C299.293 238.323 311.237 251.333 311.237 251.333C311.237 251.333 306.617 268.595 293.459 276.033C286.053 270.818 279.778 266.639 279.778 266.639C269.308 252.755 272.798 243.539 287.282 237.997Z" fill="#263238"/>
<path d="M235.718 332.858C236.603 337.496 237.668 341.141 238.012 342.252C238.045 342.37 238.104 342.481 238.186 342.578C238.268 342.674 238.37 342.755 238.487 342.815C240.24 343.69 248.236 347.261 262.917 346.475C279.303 345.675 303.34 337.585 315.809 328.976C315.991 328.849 316.121 328.671 316.181 328.47C316.24 328.27 316.224 328.057 316.137 327.865C315.174 325.934 314.051 324.071 312.778 322.293C312.653 322.123 312.471 321.993 312.259 321.924C312.046 321.854 311.814 321.849 311.598 321.908C306.224 323.39 272.388 332.147 236.75 331.762C236.599 331.762 236.45 331.792 236.312 331.85C236.175 331.907 236.053 331.991 235.955 332.095C235.857 332.199 235.785 332.321 235.744 332.453C235.703 332.585 235.694 332.723 235.718 332.858Z" fill="#2A9D8F"/>
<path opacity="0.3" d="M235.718 332.858C236.603 337.496 237.668 341.141 238.012 342.252C238.045 342.37 238.104 342.481 238.186 342.578C238.268 342.674 238.37 342.755 238.487 342.815C240.24 343.69 248.236 347.261 262.917 346.475C279.303 345.675 303.34 337.585 315.809 328.976C315.991 328.849 316.121 328.671 316.181 328.47C316.24 328.27 316.224 328.057 316.137 327.865C315.174 325.934 314.051 324.071 312.778 322.293C312.653 322.123 312.471 321.993 312.259 321.924C312.046 321.854 311.814 321.849 311.598 321.908C306.224 323.39 272.388 332.147 236.75 331.762C236.599 331.762 236.45 331.792 236.312 331.85C236.175 331.907 236.053 331.991 235.955 332.095C235.857 332.199 235.785 332.321 235.744 332.453C235.703 332.585 235.694 332.723 235.718 332.858Z" fill="white"/>
<path d="M564.095 572.558H348.367C344.377 572.591 340.422 571.878 336.752 570.462C333.082 569.046 329.775 566.959 327.04 564.331C324.306 561.703 322.202 558.592 320.861 555.194C319.52 551.795 318.972 548.182 319.25 544.583L345.466 139.105C346.065 131.579 349.763 124.529 355.831 119.35C361.898 114.17 369.894 111.237 378.237 111.13H594.014C598.005 111.097 601.959 111.81 605.629 113.226C609.299 114.642 612.606 116.73 615.341 119.357C618.076 121.985 620.179 125.096 621.52 128.494C622.861 131.893 623.409 135.506 623.131 139.105L596.833 544.583C596.235 552.104 592.542 559.15 586.481 564.329C580.42 569.508 572.433 572.444 564.095 572.558Z" fill="#2A9D8F"/>
<path opacity="0.8" d="M564.095 572.558H348.367C344.377 572.591 340.422 571.878 336.752 570.462C333.082 569.046 329.775 566.959 327.04 564.331C324.306 561.703 322.202 558.592 320.861 555.194C319.52 551.795 318.972 548.182 319.25 544.583L345.466 139.105C346.065 131.579 349.763 124.529 355.831 119.35C361.898 114.17 369.894 111.237 378.237 111.13H594.014C598.005 111.097 601.959 111.81 605.629 113.226C609.299 114.642 612.606 116.73 615.341 119.357C618.076 121.985 620.179 125.096 621.52 128.494C622.861 131.893 623.409 135.506 623.131 139.105L596.833 544.583C596.235 552.104 592.542 559.15 586.481 564.329C580.42 569.508 572.433 572.444 564.095 572.558Z" fill="white"/>
<path d="M562.817 564.439H353.085C350.282 564.463 347.503 563.963 344.924 562.969C342.345 561.975 340.021 560.509 338.099 558.664C336.177 556.818 334.698 554.633 333.755 552.246C332.812 549.858 332.426 547.32 332.62 544.791L358.837 141.076C359.257 135.801 361.844 130.859 366.088 127.221C370.333 123.582 375.929 121.511 381.776 121.414H591.507C594.311 121.391 597.09 121.894 599.67 122.889C602.249 123.885 604.572 125.352 606.494 127.198C608.416 129.045 609.895 131.231 610.838 133.619C611.781 136.008 612.167 138.547 611.973 141.076L585.756 544.791C585.336 550.065 582.748 555.005 578.503 558.641C574.258 562.277 568.663 564.345 562.817 564.439Z" fill="#2A9D8F"/>
<path d="M560.556 562.275H350.825C348.021 562.297 345.242 561.795 342.662 560.799C340.083 559.804 337.76 558.337 335.838 556.49C333.916 554.644 332.437 552.457 331.494 550.069C330.551 547.681 330.165 545.142 330.359 542.612L356.576 138.898C356.996 133.623 359.583 128.68 363.827 125.042C368.072 121.404 373.668 119.332 379.515 119.235H589.247C592.051 119.213 594.83 119.715 597.409 120.71C599.988 121.706 602.312 123.173 604.234 125.02C606.156 126.866 607.634 129.052 608.577 131.441C609.52 133.829 609.906 136.368 609.712 138.898L583.495 542.612C583.075 547.887 580.489 552.83 576.244 556.468C571.999 560.106 566.403 562.178 560.556 562.275Z" fill="white"/>
<path opacity="0.1" d="M554.428 547.265H358.837C357.104 547.279 355.386 546.969 353.792 546.354C352.198 545.738 350.762 544.832 349.574 543.691C348.386 542.55 347.472 541.199 346.889 539.723C346.307 538.247 346.067 536.678 346.187 535.115L357.198 366.715C357.456 363.447 359.061 360.386 361.694 358.136C364.327 355.887 367.798 354.612 371.421 354.565H566.929C568.662 354.551 570.38 354.861 571.974 355.476C573.568 356.091 575.004 356.998 576.192 358.139C577.38 359.28 578.294 360.631 578.877 362.107C579.46 363.583 579.699 365.152 579.579 366.715L568.65 535.115C568.392 538.382 566.788 541.444 564.154 543.693C561.521 545.943 558.05 547.218 554.428 547.265Z" fill="#2A9D8F"/>
<path opacity="0.1" d="M510.991 149.181H453.986C453.367 149.187 452.753 149.076 452.183 148.857C451.613 148.637 451.099 148.313 450.675 147.905C450.25 147.498 449.923 147.015 449.715 146.487C449.506 145.96 449.421 145.399 449.464 144.84C449.554 143.668 450.128 142.57 451.072 141.763C452.016 140.956 453.261 140.499 454.56 140.484H511.548C512.174 140.47 512.797 140.575 513.376 140.791C513.955 141.008 514.477 141.332 514.909 141.742C515.341 142.153 515.674 142.64 515.885 143.174C516.096 143.707 516.181 144.275 516.136 144.84C516.044 146.018 515.463 147.121 514.508 147.927C513.553 148.732 512.296 149.181 510.991 149.181Z" fill="#2A9D8F"/>
<path opacity="0.1" d="M533.668 311.711C568.771 280.885 571.167 231.629 539.021 201.694C506.875 171.759 452.36 172.481 417.258 203.307C382.156 234.133 379.76 283.389 411.905 313.324C444.051 343.259 498.566 342.537 533.668 311.711Z" fill="#2A9D8F"/>
<path d="M415.202 309.046C408.03 302.141 402.513 293.97 398.997 285.046C395.481 276.121 394.042 266.636 394.77 257.186H396.408C395.699 266.433 397.108 275.714 400.547 284.447C403.987 293.179 409.383 301.176 416.398 307.935L415.202 309.046Z" fill="#2A9D8F"/>
<path d="M556.148 257.822L554.51 257.734C554.957 251.206 554.406 244.654 552.871 238.263L554.51 237.938C556.077 244.465 556.628 251.157 556.148 257.822Z" fill="#2A9D8F"/>
<path d="M548.12 225.372C544.109 217.327 538.373 210.081 531.243 204.055C524.113 198.03 515.731 193.344 506.583 190.27L507.156 188.877C516.513 192.014 525.086 196.804 532.375 202.968C539.664 209.132 545.523 216.547 549.611 224.779L548.12 225.372Z" fill="#2A9D8F"/>
<path d="M526.181 304.738C556.771 277.874 558.862 234.952 530.852 208.868C502.842 182.784 455.337 183.417 424.747 210.28C394.157 237.144 392.065 280.066 420.075 306.15C448.086 332.234 495.591 331.601 526.181 304.738Z" fill="#2A9D8F"/>
<path d="M467.127 266.713C470.732 265.987 472.42 263.201 473.19 260.031C473.272 259.69 473.337 259.364 473.403 259.038V258.741C473.599 257.42 473.709 256.089 473.731 254.756C470.241 254.443 467 252.981 464.625 250.648C462.25 248.314 460.907 245.272 460.852 242.101C460.671 235.814 462.213 229.583 465.341 223.965C464.536 224.06 463.773 224.347 463.129 224.795C463.067 224.838 462.995 224.868 462.919 224.883C462.843 224.899 462.764 224.899 462.687 224.884C462.545 224.862 462.417 224.793 462.327 224.691C462.239 224.58 462.203 224.442 462.224 224.307C462.245 224.172 462.323 224.05 462.441 223.965C463.46 223.269 464.703 222.894 465.981 222.898C466.226 222.543 466.456 222.172 466.701 221.831C465.653 221.831 464.637 221.831 463.654 221.831C464.735 214.986 479.302 209.237 489.231 214.423C493.655 215.223 500.963 220.942 500.963 220.942C501.11 224.585 500.995 228.233 500.619 231.863C499.964 238.056 498.341 245.332 494.393 249.392C495.375 247.315 495.736 245.041 495.441 242.798C494.495 243.644 493.32 244.252 492.033 244.561C491.566 245.469 491.018 246.341 490.395 247.169C488.854 253.526 487.756 261.986 490.1 266.861C492.213 266.98 494.261 267.158 496.211 267.35L496.686 267.424C497.973 266.741 499.21 265.984 500.39 265.157C515.136 254.785 499.488 242.605 503.175 231.448C506.862 220.29 503.749 216.053 493.672 215.697C497.85 209.666 471.306 200.035 459.639 218.749C449.071 235.715 445.663 244.191 449.464 257.452C450.893 261.787 454.131 265.448 458.492 267.661C459.235 267.478 459.99 267.339 460.754 267.247C462.835 267.069 464.997 266.861 467.127 266.713Z" fill="#263238"/>
<path d="M444.204 292.792C443.603 291.83 443.056 290.84 442.566 289.828C441.452 292.792 440.354 295.755 439.289 298.719C438.273 301.386 437.306 304.053 436.29 306.601L434.766 310.202L434.111 311.684C433.882 312.084 434.111 311.847 434.111 311.965C433.412 312.701 432.639 313.376 431.801 313.98C431.62 314.143 431.391 314.292 431.194 314.44C435.728 317.205 440.606 319.478 445.728 321.211C445.843 314.44 446.76 307.402 447.743 305.52C441.845 301.815 442.73 297.83 444.204 292.792Z" fill="#FFC3BD"/>
<path d="M449.939 272.803L449.529 273.321C449.66 273.144 449.808 272.981 449.955 272.818L449.939 272.803Z" fill="#263238"/>
<path d="M446.155 282.73C446.131 279.468 447.224 276.28 449.284 273.603C446.143 278.072 443.56 282.842 441.583 287.827C441.583 287.827 441.878 288.613 442.501 289.842C442.991 290.855 443.538 291.844 444.139 292.806C445.307 289.544 445.985 286.155 446.155 282.73Z" fill="#263238"/>
<path d="M503.273 304.231C501.331 301.649 499.605 298.94 498.112 296.125C497.62 296.362 497.112 296.6 496.588 296.807C491.672 292.11 487.478 288.317 487.478 288.317C481.349 276.759 485.134 270.18 496.752 267.498C498.554 267.834 500.275 268.461 501.831 269.35C500.299 268.376 498.538 267.737 496.686 267.483L496.211 267.409C494.261 267.217 492.213 267.039 490.099 266.92C490.558 268.002 480.039 281.738 473.435 283.916C470.732 277.752 463.145 277.337 463.145 277.337C463.145 277.337 456.067 276.018 453.871 280.049C455.313 271.721 464.178 267.335 467.127 266.713C464.997 266.876 462.834 267.083 460.753 267.32C459.99 267.413 459.235 267.552 458.492 267.735C455.12 268.572 452.13 270.357 449.955 272.832C449.808 272.995 449.66 273.158 449.529 273.336L449.284 273.618C447.223 276.295 446.13 279.484 446.154 282.745C446.005 286.163 445.349 289.547 444.204 292.806C442.729 297.785 441.845 301.83 447.629 305.534C446.645 307.416 445.728 314.425 445.613 321.226C453.756 323.956 462.375 325.341 471.06 325.316C482.179 325.3 493.166 323.122 503.273 318.929C502.991 313.414 503.041 307.889 503.42 302.378C503.371 302.971 503.306 303.623 503.273 304.231Z" fill="#263238"/>
<path d="M463.146 277.337C463.146 277.337 470.732 277.751 473.435 283.915C479.99 281.663 490.558 268.002 490.099 266.92C490.099 266.92 475.172 273.469 463.146 277.337Z" fill="white"/>
<path d="M467.16 266.713C464.211 267.35 455.346 271.736 453.904 280.049C456.1 276.018 463.178 277.337 463.178 277.337C460.884 269.543 467.16 266.713 467.16 266.713Z" fill="white"/>
<path d="M490.395 247.228C488.97 249.096 487.169 250.704 485.086 251.969C484.21 252.539 483.277 253.035 482.3 253.451C480.154 256.566 476.953 258.972 473.174 260.311V260.059C472.404 263.23 470.716 265.986 467.111 266.742C467.111 266.742 460.836 269.587 463.097 277.381C475.14 273.514 490.051 267.009 490.051 267.009C487.757 262.06 488.855 253.584 490.395 247.228Z" fill="#FFC3BD"/>
<path d="M473.223 260.015C473.305 259.674 473.37 259.348 473.436 259.022C473.37 259.304 473.305 259.674 473.223 260.015Z" fill="#263238"/>
<path opacity="0.2" d="M473.223 260.015C473.305 259.674 473.37 259.348 473.436 259.022C473.37 259.304 473.305 259.674 473.223 260.015Z" fill="black"/>
<path d="M473.812 254.74C473.79 256.074 473.681 257.405 473.484 258.726C473.688 257.405 473.798 256.074 473.812 254.74Z" fill="#263238"/>
<path opacity="0.2" d="M473.812 254.74C473.79 256.074 473.681 257.405 473.484 258.726C473.688 257.405 473.798 256.074 473.812 254.74Z" fill="black"/>
<path d="M482.3 253.377C479.661 254.52 476.723 254.982 473.812 254.711C473.798 256.044 473.688 257.376 473.485 258.696V258.993C473.485 259.319 473.353 259.645 473.271 259.986V260.237C477.014 258.882 480.179 256.478 482.3 253.377Z" fill="#FFC3BD"/>
<path opacity="0.2" d="M482.3 253.377C479.661 254.52 476.723 254.982 473.812 254.711C473.798 256.044 473.688 257.376 473.485 258.696V258.993C473.485 259.319 473.353 259.645 473.271 259.986V260.237C477.014 258.882 480.179 256.478 482.3 253.377Z" fill="black"/>
<path d="M482.3 253.377C483.277 252.961 484.209 252.465 485.085 251.895C487.169 250.63 488.97 249.022 490.394 247.154C491.018 246.326 491.566 245.454 492.033 244.546C491.721 244.546 491.41 244.694 491.115 244.723C488.379 244.946 487.609 242.16 488.854 239.671C489.275 238.829 489.827 238.046 490.492 237.344C489.777 235.229 489.952 232.949 490.984 230.943C488.493 226.32 485.855 222.053 485.61 218.956C479.479 220.67 473.116 221.612 466.701 221.757C466.455 222.097 466.226 222.468 465.98 222.823C466.536 222.821 467.088 222.896 467.619 223.046C467.688 223.069 467.751 223.104 467.805 223.149C467.859 223.195 467.902 223.249 467.933 223.31C467.963 223.37 467.98 223.436 467.982 223.502C467.985 223.569 467.972 223.635 467.946 223.698C467.894 223.824 467.79 223.927 467.656 223.985C467.521 224.043 467.367 224.052 467.225 224.009C466.636 223.847 466.015 223.807 465.407 223.89C462.321 229.513 460.818 235.738 461.032 242.012C461.087 245.183 462.43 248.225 464.805 250.558C467.18 252.891 470.421 254.354 473.911 254.666C476.785 254.935 479.685 254.489 482.3 253.377ZM478.646 224.275C479.538 224.434 480.375 224.787 481.083 225.303C481.79 225.819 482.349 226.484 482.709 227.239C482.773 227.363 482.781 227.505 482.732 227.635C482.684 227.764 482.581 227.872 482.447 227.935C482.311 227.986 482.158 227.986 482.021 227.935C481.947 227.917 481.879 227.883 481.822 227.837C481.766 227.791 481.721 227.733 481.694 227.669C481.396 227.07 480.942 226.546 480.371 226.141C479.801 225.736 479.13 225.462 478.416 225.342C478.269 225.32 478.136 225.248 478.044 225.141C477.953 225.034 477.91 224.899 477.925 224.764C477.932 224.689 477.957 224.615 477.998 224.549C478.04 224.483 478.097 224.426 478.166 224.382C478.235 224.338 478.314 224.308 478.397 224.295C478.479 224.282 478.565 224.285 478.646 224.305V224.275ZM478.072 231.595C478.346 231.781 478.548 232.039 478.651 232.334C478.754 232.629 478.752 232.946 478.646 233.24C478.466 234.099 477.81 234.722 477.188 234.588C476.565 234.455 476.204 233.699 476.385 232.84C476.475 232.404 476.723 232.008 477.089 231.714C476.579 231.469 476.179 231.071 475.959 230.588L478.072 231.595ZM464.636 230.973C464.725 230.544 464.966 230.154 465.325 229.862C464.822 229.605 464.43 229.203 464.21 228.721L466.357 229.713C466.621 229.906 466.817 230.165 466.919 230.457C467.021 230.75 467.025 231.063 466.93 231.358C466.734 232.218 466.095 232.84 465.472 232.721C464.849 232.603 464.456 231.862 464.636 231.003V230.973ZM468.438 238.174C467.83 238.207 467.222 238.119 466.656 237.917C466.09 237.714 465.58 237.403 465.161 237.004C466.915 235.566 468.447 233.921 469.716 232.114L468.438 238.174ZM471.6 242.145C471.528 242.128 471.465 242.086 471.425 242.028C471.386 241.97 471.372 241.901 471.387 241.834C471.403 241.77 471.446 241.713 471.507 241.677C471.569 241.641 471.643 241.628 471.715 241.641C472.898 241.872 474.123 241.847 475.293 241.569C476.463 241.291 477.545 240.767 478.449 240.041C478.475 240.017 478.506 239.997 478.54 239.984C478.574 239.97 478.611 239.963 478.648 239.962C478.686 239.962 478.723 239.968 478.757 239.98C478.792 239.992 478.824 240.01 478.851 240.034C478.878 240.057 478.899 240.085 478.914 240.116C478.929 240.147 478.937 240.18 478.938 240.214C478.939 240.247 478.932 240.281 478.919 240.312C478.905 240.344 478.885 240.372 478.859 240.397C477.336 241.665 475.325 242.346 473.255 242.293C472.701 242.289 472.148 242.249 471.6 242.175V242.145Z" fill="#FFC3BD"/>
<path d="M493.196 235.597C492.508 234.115 491.722 232.53 490.919 231.048C489.887 233.054 489.712 235.334 490.427 237.449C491.154 236.622 492.109 235.983 493.196 235.597Z" fill="#263238"/>
<path d="M477.057 231.758C476.69 232.053 476.443 232.449 476.352 232.884C476.172 233.744 476.532 234.529 477.155 234.633C477.778 234.736 478.433 234.144 478.613 233.284C478.719 232.99 478.721 232.674 478.618 232.379C478.516 232.084 478.313 231.825 478.04 231.64C477.901 231.735 477.738 231.796 477.566 231.817C477.393 231.838 477.218 231.818 477.057 231.758Z" fill="#263238"/>
<path d="M466.979 231.403C467.074 231.108 467.07 230.794 466.968 230.502C466.866 230.209 466.67 229.95 466.406 229.758C466.264 229.852 466.099 229.913 465.925 229.937C465.75 229.96 465.573 229.944 465.407 229.891C465.048 230.183 464.807 230.574 464.718 231.002C464.538 231.862 464.899 232.647 465.521 232.766C466.144 232.884 466.701 232.262 466.979 231.403Z" fill="#263238"/>
<path d="M466.324 229.758L464.178 228.766C464.397 229.248 464.79 229.65 465.292 229.907C465.464 229.963 465.649 229.979 465.829 229.953C466.01 229.927 466.18 229.86 466.324 229.758Z" fill="#263238"/>
<path d="M465.178 237.078C465.597 237.477 466.107 237.789 466.673 237.991C467.239 238.193 467.847 238.281 468.455 238.249L469.749 232.188C468.476 233.997 466.938 235.642 465.178 237.078Z" fill="#ED847E"/>
<path d="M478.827 240.042C478.772 239.994 478.698 239.967 478.622 239.967C478.546 239.967 478.472 239.994 478.417 240.042C477.516 240.763 476.441 241.284 475.277 241.562C474.113 241.84 472.893 241.867 471.716 241.642C471.644 241.629 471.569 241.641 471.508 241.677C471.447 241.714 471.404 241.77 471.388 241.835C471.373 241.901 471.386 241.97 471.426 242.028C471.466 242.086 471.528 242.128 471.601 242.146C472.143 242.229 472.69 242.279 473.239 242.294C475.309 242.346 477.32 241.665 478.843 240.397C478.889 240.347 478.913 240.282 478.91 240.217C478.907 240.151 478.877 240.089 478.827 240.042Z" fill="#263238"/>
<path d="M493.196 235.597C492.109 235.983 491.154 236.622 490.427 237.449C489.762 238.15 489.21 238.933 488.788 239.775C487.543 242.265 488.313 245.05 491.05 244.828C491.345 244.828 491.656 244.709 491.967 244.65C493.254 244.341 494.429 243.733 495.375 242.887C495.032 240.376 494.299 237.922 493.196 235.597Z" fill="#FFC3BD"/>
<path d="M485.921 216.808C486.02 214.674 487.363 214.155 489.198 214.481C479.269 209.236 464.703 214.985 463.621 221.89C464.604 221.89 465.62 221.89 466.669 221.89C473.084 221.746 479.446 220.803 485.577 219.09C485.482 218.315 485.6 217.531 485.921 216.808Z" fill="#263238"/>
<path d="M485.921 216.808C485.611 217.514 485.493 218.276 485.577 219.031C485.823 222.172 488.461 226.44 490.952 231.018C491.754 232.5 492.59 233.982 493.229 235.567C494.332 237.892 495.065 240.347 495.408 242.857C495.704 245.1 495.342 247.374 494.36 249.451C498.309 245.391 499.931 238.116 500.586 231.922C500.962 228.293 501.077 224.645 500.93 221.002C500.93 221.002 493.622 215.282 489.198 214.482C487.363 214.156 486.02 214.675 485.921 216.808Z" fill="#263238"/>
<path d="M478.45 225.328C479.163 225.447 479.834 225.721 480.405 226.126C480.976 226.531 481.429 227.056 481.727 227.654C481.755 227.718 481.799 227.776 481.856 227.822C481.913 227.869 481.981 227.902 482.055 227.921C482.191 227.972 482.344 227.972 482.481 227.921C482.615 227.857 482.717 227.75 482.766 227.62C482.814 227.49 482.806 227.349 482.743 227.224C482.382 226.469 481.824 225.805 481.116 225.288C480.408 224.772 479.572 224.419 478.679 224.261C478.53 224.244 478.378 224.281 478.259 224.364C478.139 224.448 478.061 224.57 478.04 224.705C478.009 224.837 478.034 224.974 478.11 225.089C478.186 225.204 478.308 225.29 478.45 225.328Z" fill="#263238"/>
<path d="M467.127 224.083C467.268 224.126 467.422 224.118 467.557 224.06C467.692 224.001 467.796 223.898 467.848 223.772C467.874 223.71 467.886 223.643 467.884 223.577C467.882 223.51 467.865 223.445 467.834 223.384C467.804 223.323 467.76 223.269 467.706 223.223C467.653 223.178 467.589 223.143 467.52 223.12C466.99 222.97 466.437 222.895 465.882 222.898C464.604 222.893 463.361 223.268 462.342 223.964C462.224 224.049 462.146 224.172 462.125 224.307C462.104 224.442 462.14 224.579 462.228 224.69C462.318 224.792 462.446 224.861 462.588 224.883C462.665 224.898 462.744 224.898 462.82 224.883C462.896 224.867 462.968 224.837 463.03 224.794C463.674 224.346 464.437 224.06 465.243 223.964C465.872 223.872 466.517 223.912 467.127 224.083Z" fill="#263238"/>
<path d="M477.057 231.759C477.218 231.818 477.393 231.838 477.566 231.818C477.738 231.797 477.902 231.736 478.04 231.64L475.894 230.647C476.125 231.13 476.537 231.523 477.057 231.759Z" fill="#263238"/>
<path d="M503.273 304.23C503.273 303.623 503.371 302.971 503.404 302.349C502.486 301.03 501.552 299.696 500.586 298.378L498.701 295.844L498.111 296.125C499.605 298.94 501.33 301.649 503.273 304.23Z" fill="#263238"/>
<path opacity="0.2" d="M503.273 304.23C503.273 303.623 503.371 302.971 503.404 302.349C502.486 301.03 501.552 299.696 500.586 298.378L498.701 295.844L498.111 296.125C499.605 298.94 501.33 301.649 503.273 304.23Z" fill="black"/>
<path d="M508.14 316.5V316.737C514.675 313.543 520.695 309.555 526.032 304.883C525.137 302.493 524.087 300.152 522.886 297.874C521.297 294.776 519.53 291.754 517.594 288.821C515.955 286.272 514.219 283.842 512.433 281.412C510.794 284.509 506.141 291.962 498.751 295.8L500.635 298.334C501.602 299.652 502.536 300.986 503.454 302.305C504.256 303.46 505.092 304.631 505.764 305.787C507.026 307.787 508.205 309.802 509.041 311.714L508.877 312.721C508.68 313.951 508.435 315.211 508.14 316.5Z" fill="#FFC3BD"/>
<path d="M487.478 288.316C487.478 288.316 491.673 292.11 496.588 296.807C497.113 296.599 497.621 296.362 498.112 296.125L498.702 295.844C506.092 292.006 510.712 284.553 512.384 281.456C512.859 280.582 513.105 280.048 513.105 280.048C513.105 280.048 508.353 272.936 501.832 269.35C500.276 268.461 498.555 267.834 496.752 267.498C485.135 270.18 481.35 276.759 487.478 288.316Z" fill="#263238"/>
<path d="M566.045 139.683H589.132C589.763 139.673 590.367 139.45 590.825 139.058C591.282 138.666 591.561 138.133 591.606 137.564C591.627 137.293 591.585 137.021 591.483 136.765C591.382 136.51 591.223 136.276 591.017 136.078C590.811 135.881 590.562 135.724 590.285 135.617C590.009 135.511 589.711 135.457 589.411 135.46H566.308C565.68 135.469 565.078 135.69 564.62 136.079C564.163 136.468 563.882 136.998 563.833 137.564C563.81 137.838 563.851 138.112 563.952 138.371C564.054 138.629 564.214 138.866 564.422 139.065C564.63 139.265 564.882 139.423 565.161 139.529C565.441 139.636 565.742 139.688 566.045 139.683Z" fill="#2A9D8F"/>
<path d="M565.57 146.959H588.657C589.288 146.949 589.892 146.726 590.35 146.334C590.808 145.942 591.086 145.409 591.131 144.84C591.154 144.567 591.114 144.294 591.014 144.036C590.913 143.779 590.755 143.543 590.549 143.344C590.342 143.145 590.092 142.986 589.815 142.879C589.537 142.772 589.238 142.718 588.936 142.721H565.849C565.215 142.727 564.608 142.948 564.146 143.341C563.685 143.733 563.404 144.268 563.358 144.84C563.34 145.112 563.384 145.385 563.488 145.642C563.591 145.898 563.751 146.133 563.958 146.331C564.165 146.53 564.415 146.688 564.692 146.796C564.97 146.904 565.269 146.959 565.57 146.959Z" fill="#2A9D8F"/>
<path d="M378.794 146.959H401.881C402.514 146.949 403.119 146.727 403.58 146.335C404.04 145.943 404.323 145.41 404.372 144.84C404.392 144.567 404.35 144.293 404.248 144.035C404.145 143.778 403.985 143.542 403.778 143.343C403.57 143.144 403.319 142.986 403.041 142.879C402.762 142.772 402.462 142.718 402.16 142.721H379.073C378.441 142.727 377.835 142.949 377.376 143.342C376.918 143.735 376.64 144.27 376.599 144.84C376.578 145.111 376.62 145.384 376.722 145.641C376.823 145.897 376.981 146.132 377.187 146.331C377.393 146.529 377.642 146.688 377.919 146.796C378.195 146.904 378.493 146.959 378.794 146.959Z" fill="#2A9D8F"/>
<path d="M565.095 154.219H588.231C588.864 154.213 589.472 153.992 589.934 153.599C590.395 153.207 590.676 152.672 590.721 152.1C590.739 151.828 590.695 151.555 590.592 151.298C590.489 151.042 590.329 150.807 590.122 150.609C589.915 150.41 589.665 150.252 589.387 150.144C589.11 150.036 588.811 149.981 588.509 149.981H565.373C564.741 149.991 564.135 150.213 563.675 150.605C563.214 150.997 562.932 151.53 562.883 152.1C562.863 152.373 562.905 152.647 563.007 152.905C563.109 153.162 563.269 153.398 563.477 153.597C563.685 153.796 563.936 153.954 564.214 154.061C564.492 154.168 564.792 154.222 565.095 154.219Z" fill="#2A9D8F"/>
<path d="M534.749 420.058H395.081C392.473 420.08 389.888 419.614 387.488 418.689C385.089 417.764 382.927 416.4 381.139 414.682C379.35 412.965 377.974 410.932 377.097 408.71C376.22 406.488 375.861 404.127 376.042 401.774C376.435 396.856 378.852 392.25 382.817 388.865C386.781 385.48 392.005 383.561 397.457 383.489H537.125C539.733 383.467 542.319 383.933 544.718 384.858C547.118 385.784 549.279 387.148 551.068 388.865C552.856 390.582 554.232 392.616 555.109 394.837C555.986 397.059 556.346 399.42 556.165 401.774C555.772 406.692 553.354 411.298 549.39 414.683C545.425 418.068 540.201 419.986 534.749 420.058Z" fill="white"/>
<path d="M531.57 469.207H391.886C389.277 469.225 386.693 468.756 384.295 467.828C381.896 466.9 379.736 465.535 377.948 463.817C376.161 462.099 374.785 460.065 373.907 457.844C373.029 455.623 372.668 453.261 372.846 450.908C373.251 445.998 375.673 441.403 379.637 438.027C383.6 434.651 388.818 432.739 394.262 432.668H533.946C536.554 432.646 539.139 433.112 541.539 434.037C543.938 434.962 546.1 436.327 547.889 438.044C549.677 439.761 551.053 441.795 551.93 444.016C552.807 446.238 553.167 448.599 552.986 450.952C552.581 455.864 550.159 460.461 546.196 463.839C542.233 467.217 537.016 469.132 531.57 469.207Z" fill="white"/>
<path d="M528.375 518.342H388.707C386.099 518.364 383.514 517.897 381.114 516.972C378.715 516.047 376.553 514.683 374.765 512.965C372.976 511.248 371.6 509.215 370.723 506.993C369.846 504.772 369.487 502.41 369.668 500.057C370.06 495.138 372.477 490.53 376.441 487.142C380.406 483.755 385.63 481.834 391.083 481.757H530.751C533.36 481.737 535.946 482.206 538.345 483.132C540.745 484.059 542.906 485.425 544.694 487.143C546.482 488.862 547.858 490.896 548.735 493.118C549.612 495.341 549.972 497.703 549.791 500.057C549.398 504.975 546.98 509.581 543.016 512.966C539.051 516.351 533.827 518.269 528.375 518.342Z" fill="white"/>
<path d="M405.932 408.327C410.184 404.592 410.478 398.629 406.588 395.007C402.698 391.384 396.098 391.475 391.846 395.209C387.594 398.944 387.3 404.907 391.19 408.529C395.079 412.152 401.68 412.061 405.932 408.327Z" fill="#2A9D8F"/>
<path d="M397.654 442.002L399.03 446.699C399.11 446.958 399.282 447.185 399.519 447.346C399.756 447.506 400.045 447.592 400.341 447.589H405.798C406.105 447.591 406.404 447.685 406.647 447.855C406.89 448.026 407.065 448.263 407.145 448.532C407.225 448.801 407.205 449.086 407.089 449.344C406.973 449.601 406.767 449.818 406.502 449.959L401.898 452.923C401.636 453.08 401.436 453.308 401.324 453.573C401.212 453.839 401.195 454.13 401.275 454.405L402.652 459.102C402.733 459.371 402.721 459.657 402.617 459.92C402.513 460.184 402.322 460.412 402.07 460.573C401.817 460.735 401.516 460.823 401.207 460.825C400.898 460.826 400.596 460.742 400.341 460.583L396.114 457.62C395.874 457.467 395.588 457.386 395.295 457.386C395.001 457.386 394.715 457.467 394.475 457.62L389.871 460.583C389.63 460.757 389.331 460.852 389.023 460.854C388.714 460.856 388.414 460.764 388.171 460.593C387.927 460.422 387.754 460.182 387.679 459.912C387.604 459.642 387.632 459.356 387.757 459.102L389.74 454.405C389.862 454.15 389.886 453.866 389.809 453.597C389.732 453.329 389.557 453.092 389.314 452.923L385.087 449.959C384.854 449.778 384.689 449.537 384.613 449.268C384.538 448.999 384.556 448.716 384.665 448.456C384.775 448.197 384.97 447.975 385.224 447.819C385.478 447.664 385.779 447.583 386.086 447.589H391.542C391.852 447.589 392.154 447.504 392.408 447.345C392.663 447.186 392.858 446.961 392.968 446.699L394.885 442.002C394.972 441.731 395.154 441.493 395.404 441.324C395.654 441.154 395.957 441.062 396.27 441.062C396.582 441.062 396.885 441.154 397.135 441.324C397.385 441.493 397.567 441.731 397.654 442.002Z" fill="#2A9D8F"/>
<path d="M401.439 495.078L400.571 508.266C400.529 508.819 400.258 509.337 399.811 509.716C399.364 510.096 398.775 510.308 398.162 510.31H385.398C385.116 510.296 384.84 510.23 384.586 510.117C384.332 510.004 384.107 509.846 383.922 509.652C383.737 509.459 383.597 509.234 383.51 508.991C383.423 508.747 383.391 508.491 383.415 508.236L384.48 491.818C384.517 491.265 384.785 490.745 385.229 490.363C385.672 489.981 386.26 489.765 386.873 489.759H396.048L401.439 495.078Z" fill="#2A9D8F"/>
<path d="M395.966 489.788L401.488 495.078H397.899C397.608 495.081 397.318 495.029 397.05 494.926C396.781 494.822 396.539 494.67 396.339 494.478C396.139 494.285 395.985 494.058 395.887 493.809C395.789 493.561 395.749 493.297 395.769 493.033L395.966 489.788ZM394.508 486.158L394.278 489.7L394.065 492.945C394.037 493.417 394.114 493.89 394.291 494.336C394.468 494.781 394.743 495.19 395.098 495.538C395.458 495.881 395.893 496.155 396.375 496.341C396.857 496.527 397.375 496.622 397.899 496.619H405.404L402.717 494.026L397.211 488.736L394.508 486.158Z" fill="white"/>
<path opacity="0.2" d="M530.063 399.832H425.542C425.119 399.835 424.699 399.759 424.31 399.609C423.921 399.459 423.571 399.238 423.28 398.96C422.989 398.682 422.765 398.353 422.622 397.993C422.478 397.633 422.418 397.251 422.445 396.869C422.514 396.071 422.91 395.324 423.556 394.776C424.201 394.228 425.05 393.918 425.935 393.905H530.44C530.863 393.903 531.282 393.979 531.671 394.129C532.06 394.279 532.411 394.5 532.702 394.778C532.992 395.056 533.216 395.385 533.36 395.745C533.504 396.104 533.564 396.487 533.537 396.869C533.471 397.666 533.079 398.412 532.436 398.96C531.793 399.509 530.947 399.82 530.063 399.832Z" fill="#2A9D8F"/>
<path opacity="0.2" d="M510.254 409.671H424.919C424.496 409.674 424.076 409.598 423.686 409.448C423.296 409.298 422.944 409.077 422.652 408.8C422.361 408.522 422.135 408.193 421.989 407.833C421.844 407.473 421.781 407.09 421.806 406.708C421.875 405.91 422.271 405.163 422.917 404.615C423.562 404.067 424.411 403.757 425.296 403.744H510.631C511.055 403.739 511.476 403.814 511.867 403.963C512.258 404.112 512.611 404.333 512.903 404.611C513.195 404.889 513.421 405.219 513.565 405.58C513.71 405.941 513.771 406.325 513.744 406.708C513.671 407.505 513.274 408.249 512.629 408.797C511.984 409.344 511.138 409.656 510.254 409.671Z" fill="#2A9D8F"/>
<path opacity="0.2" d="M526.622 452.849H497.784C496.898 452.858 496.047 453.167 495.401 453.716C494.755 454.265 494.36 455.013 494.294 455.812C494.267 456.194 494.328 456.577 494.471 456.936C494.615 457.296 494.839 457.625 495.13 457.903C495.42 458.181 495.771 458.402 496.16 458.552C496.549 458.702 496.968 458.778 497.391 458.776H526.229C527.116 458.767 527.966 458.457 528.612 457.909C529.259 457.36 529.654 456.612 529.719 455.812C529.746 455.43 529.686 455.048 529.542 454.688C529.399 454.328 529.175 453.999 528.884 453.721C528.593 453.443 528.243 453.222 527.854 453.072C527.465 452.922 527.045 452.846 526.622 452.849Z" fill="#2A9D8F"/>
<path opacity="0.2" d="M480.923 452.849H422.117C421.23 452.858 420.38 453.167 419.733 453.716C419.087 454.265 418.692 455.013 418.627 455.812C418.597 456.195 418.656 456.578 418.798 456.939C418.941 457.3 419.165 457.63 419.456 457.908C419.747 458.187 420.099 458.408 420.489 458.557C420.879 458.706 421.3 458.781 421.723 458.776H480.546C481.432 458.764 482.28 458.453 482.926 457.905C483.571 457.357 483.967 456.611 484.037 455.812C484.064 455.429 484.003 455.045 483.858 454.685C483.714 454.324 483.488 453.994 483.196 453.716C482.903 453.437 482.551 453.217 482.16 453.068C481.769 452.918 481.348 452.844 480.923 452.849Z" fill="#2A9D8F"/>
<path opacity="0.2" d="M508.09 443.04H422.74C421.853 443.049 421.003 443.358 420.356 443.907C419.71 444.456 419.315 445.204 419.249 446.004C419.222 446.385 419.283 446.768 419.426 447.128C419.57 447.488 419.794 447.817 420.085 448.095C420.375 448.373 420.726 448.594 421.115 448.744C421.504 448.894 421.923 448.97 422.346 448.967H507.681C508.566 448.955 509.414 448.644 510.06 448.096C510.705 447.548 511.101 446.802 511.171 446.004C511.198 445.623 511.138 445.242 510.995 444.883C510.852 444.524 510.63 444.196 510.341 443.918C510.052 443.64 509.704 443.419 509.316 443.268C508.929 443.117 508.512 443.039 508.09 443.04Z" fill="#2A9D8F"/>
<path opacity="0.2" d="M523.427 501.983H418.922C418.038 501.999 417.192 502.311 416.547 502.858C415.902 503.406 415.505 504.15 415.432 504.947C415.405 505.33 415.466 505.714 415.61 506.075C415.755 506.436 415.981 506.765 416.273 507.044C416.565 507.322 416.918 507.542 417.309 507.692C417.7 507.841 418.121 507.915 418.545 507.91H523.05C523.934 507.898 524.78 507.587 525.423 507.038C526.066 506.49 526.459 505.744 526.524 504.947C526.551 504.565 526.491 504.182 526.347 503.823C526.204 503.463 525.979 503.134 525.689 502.856C525.398 502.578 525.048 502.357 524.659 502.207C524.269 502.057 523.85 501.981 523.427 501.983Z" fill="#2A9D8F"/>
<path opacity="0.2" d="M504.895 492.159H419.561C418.675 492.172 417.827 492.482 417.182 493.03C416.536 493.578 416.14 494.324 416.071 495.123C416.044 495.504 416.104 495.887 416.248 496.247C416.391 496.607 416.615 496.936 416.906 497.214C417.197 497.492 417.547 497.713 417.936 497.863C418.325 498.013 418.745 498.089 419.168 498.086H504.518C505.402 498.074 506.248 497.763 506.891 497.214C507.534 496.666 507.927 495.92 507.992 495.123C508.019 494.741 507.959 494.358 507.815 493.999C507.671 493.639 507.447 493.31 507.157 493.032C506.866 492.754 506.516 492.533 506.126 492.383C505.737 492.232 505.318 492.156 504.895 492.159Z" fill="#2A9D8F"/>
</svg>
