<svg width="141" height="40" viewBox="0 0 141 40" fill="none" xmlns="http://www.w3.org/2000/svg">
<path fill-rule="evenodd" clip-rule="evenodd" d="M8.22541 12.3425C-5.23905 0.436754 0.371142 9.05814 7.10337 15.6268C24.682 32.0485 46.7487 39.4383 68.8155 39.8488C91.6303 39.8488 117.811 31.638 135.016 11.9319C135.016 11.9319 137.26 8.6476 137.26 11.5214C137.26 14.3952 138.008 20.1428 139.13 18.0901C139.878 16.4479 141 9.05814 141 4.13163C141 0.0262123 139.504 0.0262124 136.886 0.436754C132.024 1.25784 124.169 2.90001 124.169 4.95272C124.169 6.59489 133.146 4.54218 132.398 6.59489C132.024 7.41597 131.276 8.6476 129.406 10.7003C114.445 26.7114 88.6382 34.5117 69.1895 34.5117C47.4968 34.5117 25.056 27.5325 8.22541 12.3425Z" fill="#FBFBFB"/>
</svg>
