<svg width="360" height="149" viewBox="0 0 360 149" fill="none" xmlns="http://www.w3.org/2000/svg">
<path d="M244.597 119.747V97.8298L309.75 4.58301H342.227V95.4389H359.76V119.747H342.227V148.04H314.333V119.747H244.597ZM316.126 34.4698L275.28 95.4389H316.126V34.4698Z" fill="#131313"/>
<path d="M124.953 73.5215C124.953 50.5419 129.071 32.5434 137.306 19.526C145.675 6.50868 159.489 0 178.749 0C198.01 0 211.758 6.50868 219.993 19.526C228.361 32.5434 232.546 50.5419 232.546 73.5215C232.546 96.634 228.361 114.765 219.993 127.915C211.758 141.066 198.01 147.641 178.749 147.641C159.489 147.641 145.675 141.066 137.306 127.915C129.071 114.765 124.953 96.634 124.953 73.5215ZM205.05 73.5215C205.05 63.6921 204.386 55.4566 203.057 48.8151C201.862 42.0408 199.338 36.5283 195.486 32.2777C191.767 28.0272 186.188 25.9019 178.749 25.9019C171.311 25.9019 165.666 28.0272 161.813 32.2777C158.094 36.5283 155.57 42.0408 154.242 48.8151C153.047 55.4566 152.449 63.6921 152.449 73.5215C152.449 83.6166 153.047 92.1177 154.242 99.0249C155.438 105.799 157.961 111.312 161.813 115.562C165.666 119.68 171.311 121.739 178.749 121.739C186.188 121.739 191.833 119.68 195.685 115.562C199.537 111.312 202.061 105.799 203.257 99.0249C204.452 92.1177 205.05 83.6166 205.05 73.5215Z" fill="#131313"/>
<path d="M0 119.747V97.8298L65.1532 4.58301H97.6302V95.4389H115.164V119.747H97.6302V148.04H69.7358V119.747H0ZM71.5291 34.4698L30.6838 95.4389H71.5291V34.4698Z" fill="#131313"/>
</svg>
