<svg width="48" height="48" viewBox="0 0 48 48" fill="none" xmlns="http://www.w3.org/2000/svg">
    <path d="M25.1604 0H22.8394V48H25.1604V0Z" fill="white" />
    <path d="M48 22.8398H0V25.1609H48V22.8398Z" fill="white" />
    <path d="M7.84583 6.20739L6.20459 7.84863L40.1454 41.7894L41.7866 40.1482L7.84583 6.20739Z"
        fill="white" />
    <path d="M40.1454 6.20665L6.20459 40.1475L7.84583 41.7887L41.7866 7.84788L40.1454 6.20665Z"
        fill="white" />
    <path d="M2.21852 13.8778L1.34277 16.0273L45.7956 34.1377L46.6713 31.9882L2.21852 13.8778Z"
        fill="white" />
    <path d="M31.9878 1.34601L13.8774 45.7988L16.027 46.6746L34.1374 2.22176L31.9878 1.34601Z" fill="white" />
    <path d="M45.848 13.9586L1.31836 31.8818L2.18505 34.0351L46.7147 16.1119L45.848 13.9586Z" fill="white" />
    <path d="M16.102 1.31909L13.9487 2.18555L31.8671 46.7151L34.0204 45.8487L16.102 1.31909Z" fill="white" />
</svg>