<svg width="80" height="50" viewBox="0 0 80 50" fill="none" xmlns="http://www.w3.org/2000/svg">
<path d="M0.176775 0.928155C5.81922 -0.109666 11.6255 -0.404132 17.281 0.70551C26.7441 2.46155 35.601 7.70092 42.2788 15.2314C48.8387 22.708 53.3769 32.4434 54.55 42.775C47.2037 41.3098 40.0409 38.7781 33.2352 35.4276C26.3837 32.0915 20.0302 27.5847 14.3845 22.1801C18.2804 28.3532 23.5985 33.3017 29.3982 37.2232C36.1842 41.73 43.7926 44.6675 51.6075 46.0931C52.6692 46.3122 53.7406 46.4738 54.799 46.7215C48.2784 49.8889 40.8928 50.6466 33.8741 49.4867C24.6044 47.8599 15.836 42.6205 9.72502 34.7812C4.32177 28.0946 0.966455 19.5084 0.121072 10.6384C-0.0591454 7.40287 -0.0362093 4.15653 0.176775 0.928155Z" fill="#2A9D8F"/>
<path d="M53.203 3.68252C57.8755 1.77925 62.748 0.34282 67.7449 0.0698983C71.4672 -0.0198786 75.2288 0.00167183 78.8856 0.870712C79.9604 0.949716 79.7277 2.35023 79.8915 3.169C80.3536 9.55393 79.3149 16.0179 77.2538 21.9898C75.9956 25.2074 74.7373 28.4753 72.7844 31.2763C69.5438 36.1279 65.5266 40.4192 60.8606 43.6117C59.9399 44.2653 58.9339 44.7608 57.8821 45.0984C57.6003 41.3062 56.9122 37.5464 55.9325 33.9014C55.3525 31.6355 54.3728 29.5311 53.6814 27.3118C58.4555 23.9003 63.1215 20.1727 66.9487 15.5079C68.2659 13.9279 69.3341 12.1251 70.3204 10.2865C66.8373 14.2116 62.7217 17.3645 58.5276 20.3092C56.4371 21.681 54.4023 23.1641 52.2003 24.3132C50.349 20.7617 48.1241 17.4615 45.6961 14.3588C44.6967 13.0696 43.4876 11.9923 42.5669 10.6313C43.2517 9.70476 44.1954 9.07991 45.1063 8.45506C47.708 6.68466 50.3392 4.91067 53.203 3.68252Z" fill="#2A9D8F"/>
</svg>
