<svg width="37" height="37" viewBox="0 0 37 37" fill="none" xmlns="http://www.w3.org/2000/svg">
<path fill-rule="evenodd" clip-rule="evenodd" d="M18.4997 1.92676C9.34671 1.92676 1.92676 9.34671 1.92676 18.4997C1.92676 27.6527 9.34671 35.0726 18.4997 35.0726C27.6527 35.0726 35.0726 27.6527 35.0726 18.4997C35.0726 9.34671 27.6527 1.92676 18.4997 1.92676ZM11.6091 18.453C11.1576 18.0014 10.4255 18.0014 9.97392 18.453C9.52238 18.9045 9.52238 19.6365 9.97392 20.0881L14.5989 24.7131C15.0505 25.1646 15.7826 25.1646 16.234 24.7131L27.0257 13.9214C27.4773 13.4699 27.4773 12.7378 27.0257 12.2862C26.5742 11.8347 25.8422 11.8347 25.3906 12.2862L15.4165 22.2603L11.6091 18.453Z" fill="#2A9D8F"/>
</svg>
