<svg width="78" height="78" viewBox="0 0 78 78" fill="none" xmlns="http://www.w3.org/2000/svg">
<path d="M42.0062 39.65L49.8062 47.45C50.3479 48.0458 50.6187 48.7543 50.6187 49.5753C50.6187 50.3964 50.3632 51.0735 49.8521 51.6066C49.204 52.1939 48.4629 52.4875 47.6287 52.4875C46.7945 52.4875 46.112 52.1896 45.5812 51.5938L36.9687 42.9813C36.6437 42.7259 36.4135 42.4124 36.2781 42.0408C36.1427 41.6692 36.075 41.3056 36.075 40.95V28.7625C36.075 27.9622 36.3636 27.2746 36.9409 26.6997C37.5182 26.1249 38.2088 25.8375 39.0128 25.8375C39.8167 25.8375 40.5166 26.1249 41.1125 26.6997C41.7083 27.2746 42.0062 27.9622 42.0062 28.7625V39.65ZM38.9857 18.525C38.1814 18.525 37.4951 18.2337 36.927 17.6511C36.359 17.0684 36.075 16.3612 36.075 15.5295V10.1562H42.0062V15.5295C42.0062 16.3612 41.7096 17.0684 41.1165 17.6511C40.5233 18.2337 39.8131 18.525 38.9857 18.525ZM59.475 38.9872C59.475 38.1832 59.7663 37.4833 60.3489 36.8875C60.9315 36.2917 61.6387 35.9937 62.4705 35.9937H67.8437V41.925H62.4705C61.6387 41.925 60.9315 41.6363 60.3489 41.059C59.7663 40.4817 59.475 39.7911 59.475 38.9872ZM39.0128 59.475C39.8167 59.475 40.5166 59.7663 41.1125 60.3489C41.7083 60.9315 42.0062 61.6387 42.0062 62.4705V67.8438H36.075V62.4556C36.075 61.6196 36.3636 60.9138 36.9409 60.3383C37.5182 59.7628 38.2088 59.475 39.0128 59.475ZM18.525 39.0142C18.525 39.8186 18.2336 40.5048 17.651 41.0729C17.0684 41.641 16.3612 41.925 15.5294 41.925H10.1562V35.9937H15.5444C16.3804 35.9937 17.0862 36.2903 17.6617 36.8834C18.2372 37.4766 18.525 38.1869 18.525 39.0142ZM38.9844 72.8C34.3306 72.8 29.956 71.9057 25.8607 70.1171C21.7654 68.3285 18.1924 65.9089 15.1417 62.8582C12.091 59.8076 9.67141 56.229 7.88283 52.1225C6.09424 48.0161 5.19995 43.6284 5.19995 38.9594C5.19995 34.2962 6.09584 29.9138 7.88762 25.8124C9.6794 21.711 12.1084 18.1276 15.1746 15.0622C18.2408 11.9968 21.8173 9.58677 25.9042 7.83209C29.991 6.07736 34.3578 5.2 39.0046 5.2C43.6709 5.2 48.0631 6.07736 52.1811 7.83209C56.299 9.58677 59.8847 11.9972 62.9383 15.0633C65.9919 18.1294 68.3989 21.722 70.1593 25.8409C71.9197 29.9598 72.8 34.3536 72.8 39.0224C72.8 43.6912 71.9226 48.0596 70.1679 52.1278C68.4132 56.1959 66.0032 59.7575 62.9377 62.8123C59.8723 65.8673 56.2807 68.2956 52.1627 70.0974C48.0447 71.8991 43.652 72.8 38.9844 72.8ZM66.8687 38.9594C66.8687 31.267 64.1589 24.7059 58.7392 19.2761C53.3195 13.8462 46.7397 11.1312 39 11.1312C31.3347 11.1312 24.7736 13.8411 19.3167 19.2608C13.8597 24.6805 11.1312 31.2602 11.1312 39C11.1312 46.6653 13.8597 53.2264 19.3167 58.6833C24.7736 64.1403 31.3482 66.8688 39.0406 66.8688C46.7329 66.8688 53.294 64.1403 58.7239 58.6833C64.1538 53.2264 66.8687 46.6517 66.8687 38.9594Z" fill="#FBFBFB"/>
</svg>
