<svg
                    width="64"
                    height="67"
                    viewBox="0 0 64 67"
                    fill="none"
                    xmlns="http://www.w3.org/2000/svg"
                  >
                    <ellipse
                      cx="32"
                      cy="33.3322"
                      rx="32"
                      ry="33.0927"
                      fill="#2A9D8F"
                    />
                    <path
                      d="M19.2051 26.5219L32.0003 33.1371L44.7955 26.5219C44.7481 25.6787 44.3908 24.8862 43.7968 24.3067C43.2028 23.7271 42.4169 23.4044 41.6003 23.4045H22.4003C21.5836 23.4044 20.7978 23.7271 20.2038 24.3067C19.6097 24.8862 19.2524 25.6787 19.2051 26.5219Z"
                      fill="white"
                    />
                    <path
                      d="M44.8002 30.2184L32.0002 36.8369L19.2002 30.2184V39.9509C19.2002 40.8286 19.5373 41.6703 20.1375 42.2909C20.7376 42.9116 21.5515 43.2602 22.4002 43.2602H41.6002C42.4489 43.2602 43.2628 42.9116 43.8629 42.2909C44.4631 41.6703 44.8002 40.8286 44.8002 39.9509V30.2184Z"
                      fill="white"
                    />
                  </svg>