<svg width="24" height="19" viewBox="0 0 24 19" fill="none" xmlns="http://www.w3.org/2000/svg">
<path d="M20.8063 18.951C20.5945 18.9513 20.3913 18.868 20.242 18.7195L2.67854 1.34812C2.38034 1.03767 2.38667 0.548714 2.69281 0.24592C2.99895 -0.0568734 3.49332 -0.0631336 3.80719 0.231809L21.3706 17.6032C21.5988 17.8291 21.667 18.1686 21.5435 18.4635C21.42 18.7585 21.1291 18.9509 20.8063 18.951Z" fill="#9BA1B3"/>
<path d="M12.0079 15.793C9.93772 15.793 7.94138 15.187 6.07427 13.9917C4.37431 12.906 2.844 11.3509 1.64849 9.50077V9.49683C2.64342 8.08688 3.73315 6.89457 4.90371 5.93322C4.92512 5.91551 4.93806 5.88975 4.93938 5.86219C4.94071 5.83462 4.93031 5.80776 4.9107 5.78813L3.91677 4.80654C3.88014 4.77002 3.8213 4.76744 3.78155 4.80062C2.53814 5.83698 1.38404 7.10826 0.33473 8.59667C-0.0344984 9.12082 -0.0471123 9.81363 0.302797 10.3506C1.62055 12.3903 3.31652 14.1082 5.20658 15.3177C7.33465 16.6813 9.62488 17.3722 12.0079 17.3722C13.2942 17.3683 14.5714 17.1586 15.79 16.7514C15.8227 16.7404 15.8474 16.7135 15.8552 16.6803C15.863 16.647 15.8529 16.6121 15.8285 16.588L14.7517 15.523C14.7013 15.4744 14.6286 15.4556 14.5606 15.4737C13.7267 15.6861 12.869 15.7934 12.0079 15.793Z" fill="#9BA1B3"/>
<path d="M23.7424 8.6165C22.4221 6.59708 20.7092 4.88165 18.7892 3.65528C16.6651 2.29715 14.32 1.5791 12.0078 1.5791C10.7352 1.58133 9.47194 1.79538 8.2711 2.21227C8.23857 2.22347 8.21418 2.25046 8.20657 2.28368C8.19896 2.3169 8.20921 2.35165 8.23368 2.37562L9.30894 3.43913C9.35989 3.48866 9.43372 3.50749 9.50253 3.48848C10.3193 3.26994 11.1617 3.15893 12.0078 3.15832C14.0381 3.15832 16.0284 3.77175 17.923 4.9843C19.6549 6.08975 21.2032 7.64331 22.4017 9.47521C22.4035 9.47753 22.4035 9.48078 22.4017 9.4831C21.5317 10.8377 20.4521 12.0489 19.2023 13.0724C19.1807 13.09 19.1675 13.1158 19.1661 13.1435C19.1647 13.1712 19.1751 13.1982 19.1948 13.218L20.1878 14.1995C20.2242 14.2359 20.2827 14.2387 20.3225 14.206C21.6567 13.0948 22.8116 11.7888 23.7474 10.3329C24.0851 9.80902 24.0832 9.13847 23.7424 8.6165Z" fill="#9BA1B3"/>
<path d="M12.0247 4.73828C11.6659 4.73809 11.3082 4.77782 10.9584 4.85672C10.9224 4.86412 10.8934 4.89049 10.883 4.92536C10.8726 4.96023 10.8824 4.99795 10.9085 5.02353L16.5263 10.5784C16.5522 10.6043 16.5903 10.614 16.6256 10.6037C16.6608 10.5933 16.6875 10.5647 16.695 10.5291C17.019 9.12355 16.6783 7.64857 15.7694 6.52159C14.8605 5.39461 13.4822 4.73825 12.0247 4.73828Z" fill="#9BA1B3"/>
<path d="M7.5229 8.37304C7.49704 8.34718 7.4589 8.33749 7.42365 8.34781C7.38839 8.35812 7.36173 8.38678 7.35425 8.42239C6.98642 10.0118 7.47077 11.6766 8.63645 12.8295C9.80214 13.9825 11.4853 14.4615 13.0923 14.0977C13.1283 14.0903 13.1573 14.0639 13.1677 14.0291C13.1781 13.9942 13.1683 13.9565 13.1422 13.9309L7.5229 8.37304Z" fill="#9BA1B3"/>
</svg>
