<svg width="47" height="47" viewBox="0 0 47 47" fill="none" xmlns="http://www.w3.org/2000/svg">
<circle cx="23.5" cy="23.5" r="23.5" fill="white"/>
<path d="M29.7512 13.6413C29.7512 13.4732 29.6837 13.312 29.5638 13.1931C29.4438 13.0743 29.2811 13.0075 29.1114 13.0075H25.9127C24.302 12.928 22.725 13.4834 21.5262 14.5522C20.3275 15.621 19.6045 17.1165 19.5152 18.7118V22.1344H16.3165C16.1468 22.1344 15.9841 22.2012 15.8641 22.32C15.7442 22.4389 15.6768 22.6001 15.6768 22.7682V26.064C15.6768 26.2321 15.7442 26.3933 15.8641 26.5122C15.9841 26.6311 16.1468 26.6978 16.3165 26.6978H19.5152V35.1909C19.5152 35.359 19.5826 35.5202 19.7026 35.6391C19.8226 35.7579 19.9853 35.8247 20.155 35.8247H23.9934C24.1631 35.8247 24.3258 35.7579 24.4458 35.6391C24.5658 35.5202 24.6332 35.359 24.6332 35.1909V26.6978H27.9855C28.1277 26.6999 28.2666 26.6548 28.3802 26.5699C28.4937 26.4849 28.5754 26.3649 28.6124 26.2288L29.5336 22.933C29.5591 22.8393 29.5625 22.7412 29.5436 22.646C29.5248 22.5508 29.4841 22.4612 29.4248 22.3841C29.3654 22.3069 29.289 22.2443 29.2014 22.201C29.1138 22.1577 29.0174 22.1349 28.9195 22.1344H24.6332V18.7118C24.665 18.398 24.8137 18.1073 25.0503 17.8963C25.2869 17.6854 25.5944 17.5694 25.9127 17.5709H29.1114C29.2811 17.5709 29.4438 17.5042 29.5638 17.3853C29.6837 17.2664 29.7512 17.1052 29.7512 16.9371V13.6413Z" fill="black"/>
</svg>
