<svg width="24" height="24" viewBox="0 0 24 24" fill="none" xmlns="http://www.w3.org/2000/svg">
<path d="M23.9985 12.2655C23.9985 11.279 23.9168 10.5591 23.74 9.8125H12.2441V14.2652H18.9919C18.8559 15.3717 18.1213 17.0382 16.4887 18.158L16.4658 18.3071L20.1006 21.0664L20.3524 21.091C22.6652 18.9979 23.9985 15.9183 23.9985 12.2655Z" fill="#4285F4"/>
<path d="M12.2437 23.9965C15.5496 23.9965 18.3249 22.9299 20.352 21.0902L16.4883 18.1572C15.4544 18.8638 14.0667 19.357 12.2437 19.357C9.00588 19.357 6.25778 17.264 5.27817 14.3711L5.13458 14.383L1.35509 17.2493L1.30566 17.384C3.31911 21.3034 7.4549 23.9965 12.2437 23.9965Z" fill="#34A853"/>
<path d="M5.2785 14.3711C5.02002 13.6245 4.87043 12.8246 4.87043 11.9981C4.87043 11.1715 5.02002 10.3716 5.2649 9.62505L5.25806 9.46605L1.43121 6.55371L1.306 6.61207C0.476164 8.23854 0 10.065 0 11.9981C0 13.9311 0.476164 15.7575 1.306 17.384L5.2785 14.3711Z" fill="#FBBC05"/>
<path d="M12.2437 4.63935C14.5429 4.63935 16.0937 5.61255 16.9781 6.42583L20.4336 3.11959C18.3114 1.18651 15.5496 0 12.2437 0C7.4549 0 3.31911 2.69296 1.30566 6.6124L5.26457 9.62538C6.25778 6.73243 9.00588 4.63935 12.2437 4.63935Z" fill="#EB4335"/>
</svg>
