<svg width="34" height="34" viewBox="0 0 34 34" fill="none" xmlns="http://www.w3.org/2000/svg">
<path d="M16.2903 8.67403C18.7708 8.67403 19.0646 8.68332 20.0445 8.728C20.6337 8.73521 21.2172 8.84339 21.7698 9.04785C22.1706 9.2024 22.5345 9.43915 22.8382 9.74286C23.1419 10.0466 23.3787 10.4105 23.5332 10.8112C23.7377 11.3638 23.8459 11.9474 23.8531 12.5366C23.8973 13.5165 23.9071 13.8102 23.9071 16.2908C23.9071 18.7713 23.8978 19.065 23.8531 20.0449C23.8459 20.6341 23.7377 21.2177 23.5332 21.7703C23.3787 22.171 23.1419 22.535 22.8382 22.8387C22.5345 23.1424 22.1706 23.3791 21.7698 23.5337C21.2172 23.7381 20.6337 23.8463 20.0445 23.8535C19.065 23.8978 18.7713 23.9075 16.2903 23.9075C13.8094 23.9075 13.5156 23.8982 12.5361 23.8535C11.947 23.8463 11.3634 23.7381 10.8108 23.5337C10.4101 23.3791 10.0461 23.1424 9.74242 22.8387C9.43871 22.535 9.20196 22.171 9.04741 21.7703C8.84295 21.2177 8.73477 20.6341 8.72756 20.0449C8.68332 19.065 8.67359 18.7713 8.67359 16.2908C8.67359 13.8102 8.68288 13.5165 8.72756 12.5366C8.73477 11.9474 8.84295 11.3638 9.04741 10.8112C9.20196 10.4105 9.43871 10.0466 9.74242 9.74286C10.0461 9.43915 10.4101 9.2024 10.8108 9.04785C11.3634 8.84339 11.947 8.73521 12.5361 8.728C13.5161 8.68376 13.8098 8.67403 16.2903 8.67403ZM16.2903 7C13.7687 7 13.451 7.01062 12.4601 7.05574C11.689 7.07108 10.9261 7.21708 10.2038 7.48752C9.58426 7.72096 9.02308 8.08677 8.55945 8.55945C8.08635 9.02324 7.72022 9.58474 7.48664 10.2047C7.21619 10.927 7.07019 11.6899 7.05486 12.4609C7.01062 13.451 7 13.7687 7 16.2903C7 18.812 7.01062 19.1296 7.05574 20.1206C7.07108 20.8917 7.21708 21.6546 7.48752 22.3768C7.72084 22.9967 8.08667 23.5582 8.55945 24.0221C9.02333 24.4949 9.58482 24.8607 10.2047 25.094C10.927 25.3645 11.6899 25.5105 12.4609 25.5258C13.4519 25.57 13.7682 25.5815 16.2912 25.5815C18.8142 25.5815 19.1305 25.5709 20.1215 25.5258C20.8926 25.5105 21.6554 25.3645 22.3777 25.094C22.9946 24.8549 23.5549 24.4896 24.0226 24.0216C24.4904 23.5535 24.8553 22.993 25.094 22.3759C25.3645 21.6537 25.5105 20.8908 25.5258 20.1197C25.57 19.1296 25.5806 18.812 25.5806 16.2903C25.5806 13.7687 25.57 13.451 25.5249 12.4601C25.5096 11.689 25.3636 10.9261 25.0931 10.2038C24.8598 9.58394 24.494 9.02245 24.0212 8.55856C23.5573 8.08578 22.9958 7.71996 22.3759 7.48664C21.6537 7.21619 20.8908 7.07019 20.1197 7.05486C19.1296 7.01062 18.812 7 16.2903 7Z" fill="white"/>
<path d="M16.2923 11.5215C15.3487 11.5215 14.4263 11.8013 13.6418 12.3255C12.8572 12.8497 12.2457 13.5948 11.8846 14.4666C11.5236 15.3383 11.4291 16.2976 11.6132 17.223C11.7972 18.1485 12.2516 18.9985 12.9188 19.6658C13.586 20.333 14.4361 20.7873 15.3616 20.9714C16.287 21.1555 17.2462 21.061 18.118 20.6999C18.9897 20.3388 19.7348 19.7274 20.2591 18.9428C20.7833 18.1582 21.0631 17.2359 21.0631 16.2923C21.0631 15.027 20.5605 13.8135 19.6658 12.9188C18.7711 12.0241 17.5576 11.5215 16.2923 11.5215ZM16.2923 19.3891C15.6798 19.3891 15.0811 19.2074 14.5718 18.8672C14.0626 18.5269 13.6656 18.0432 13.4312 17.4774C13.1969 16.9115 13.1355 16.2889 13.255 15.6881C13.3745 15.0874 13.6694 14.5356 14.1025 14.1025C14.5356 13.6694 15.0874 13.3745 15.6881 13.255C16.2889 13.1355 16.9115 13.1969 17.4774 13.4312C18.0432 13.6656 18.5269 14.0625 18.8672 14.5718C19.2074 15.0811 19.3891 15.6798 19.3891 16.2923C19.3891 17.1136 19.0628 17.9013 18.482 18.482C17.9013 19.0628 17.1136 19.3891 16.2923 19.3891Z" fill="white"/>
<path d="M21.2496 12.4465C21.8653 12.4465 22.3644 11.9473 22.3644 11.3316C22.3644 10.7159 21.8653 10.2168 21.2496 10.2168C20.6339 10.2168 20.1348 10.7159 20.1348 11.3316C20.1348 11.9473 20.6339 12.4465 21.2496 12.4465Z" fill="white"/>
</svg>
