<svg width="20" height="20" viewBox="0 0 20 20" fill="none" xmlns="http://www.w3.org/2000/svg">
<path d="M5.15873 10.2877C5.31027 10.1366 5.51555 10.0517 5.72957 10.0517C5.94359 10.0517 6.14887 10.1366 6.3004 10.2877C6.37526 10.3625 6.43465 10.4513 6.47517 10.549C6.51569 10.6467 6.53654 10.7515 6.53654 10.8573C6.53654 10.9631 6.51569 11.0679 6.47517 11.1656C6.43465 11.2633 6.37526 11.3521 6.3004 11.4269L4.5879 13.1369C4.43806 13.2864 4.31918 13.4641 4.23806 13.6596C4.15695 13.8552 4.1152 14.0648 4.1152 14.2765C4.1152 14.4882 4.15695 14.6978 4.23806 14.8933C4.31918 15.0889 4.43806 15.2665 4.5879 15.4161C4.89096 15.7183 5.30153 15.8881 5.72957 15.8881C6.1576 15.8881 6.56817 15.7183 6.87123 15.4161L10.8662 11.4269C10.9411 11.3521 11.0005 11.2633 11.041 11.1656C11.0815 11.0679 11.1024 10.9631 11.1024 10.8573C11.1024 10.7515 11.0815 10.6467 11.041 10.549C11.0005 10.4513 10.9411 10.3625 10.8662 10.2877C10.7912 10.2129 10.7318 10.1241 10.6912 10.0263C10.6506 9.92848 10.6297 9.82362 10.6297 9.71772C10.6297 9.61182 10.6506 9.50697 10.6912 9.40915C10.7318 9.31134 10.7912 9.2225 10.8662 9.14772C11.0178 8.99659 11.223 8.91171 11.4371 8.91171C11.6511 8.91171 11.8564 8.99659 12.0079 9.14772C12.2327 9.37205 12.4111 9.63852 12.5328 9.93187C12.6545 10.2252 12.7172 10.5397 12.7172 10.8573C12.7172 11.1749 12.6545 11.4894 12.5328 11.7827C12.4111 12.0761 12.2327 12.3426 12.0079 12.5669L8.01207 16.5561C7.40605 17.1608 6.58488 17.5004 5.72873 17.5004C4.87259 17.5004 4.05142 17.1608 3.4454 16.5561C3.14571 16.257 2.90795 15.9017 2.74573 15.5106C2.5835 15.1195 2.5 14.7003 2.5 14.2769C2.5 13.8535 2.5835 13.4342 2.74573 13.0432C2.90795 12.6521 3.14571 12.2968 3.4454 11.9977L5.15873 10.2869V10.2877ZM14.8421 9.71272C14.6905 9.86386 14.4853 9.94874 14.2712 9.94874C14.0572 9.94874 13.8519 9.86386 13.7004 9.71272C13.6255 9.63796 13.5662 9.54917 13.5256 9.45144C13.4851 9.3537 13.4643 9.24894 13.4643 9.14314C13.4643 9.03734 13.4851 8.93258 13.5256 8.83484C13.5662 8.73711 13.6255 8.64832 13.7004 8.57356L15.4129 6.86356C15.5627 6.71401 15.6816 6.53638 15.7627 6.34084C15.8439 6.14529 15.8856 5.93567 15.8856 5.72397C15.8856 5.51227 15.8439 5.30265 15.7627 5.10711C15.6816 4.91156 15.5627 4.73393 15.4129 4.58439C15.1098 4.28212 14.6993 4.11237 14.2712 4.11237C13.8432 4.11237 13.4326 4.28212 13.1296 4.58439L9.1354 8.57356C9.06054 8.64832 9.00115 8.73711 8.96063 8.83484C8.92011 8.93258 8.89926 9.03734 8.89926 9.14314C8.89926 9.24894 8.92011 9.3537 8.96063 9.45144C9.00115 9.54917 9.06054 9.63796 9.1354 9.71272C9.21039 9.7875 9.26988 9.87634 9.31047 9.97415C9.35106 10.072 9.37196 10.1768 9.37196 10.2827C9.37196 10.3886 9.35106 10.4935 9.31047 10.5913C9.26988 10.6891 9.21039 10.7779 9.1354 10.8527C8.98387 11.0039 8.77859 11.0887 8.56457 11.0887C8.35055 11.0887 8.14527 11.0039 7.99373 10.8527C7.7689 10.6284 7.59053 10.3619 7.46883 10.0686C7.34712 9.77522 7.28447 9.46074 7.28447 9.14314C7.28447 8.82554 7.34712 8.51106 7.46883 8.2177C7.59053 7.92435 7.7689 7.65788 7.99373 7.43356L11.9896 3.44439C12.5956 2.83964 13.4168 2.5 14.2729 2.5C15.129 2.5 15.9502 2.83964 16.5562 3.44439C16.8559 3.74348 17.0937 4.09874 17.2559 4.48982C17.4181 4.88091 17.5016 5.30016 17.5016 5.72356C17.5016 6.14696 17.4181 6.5662 17.2559 6.95729C17.0937 7.34838 16.8559 7.70363 16.5562 8.00272L14.8421 9.71356V9.71272Z" fill="white"/>
</svg>
