<svg width="47" height="47" viewBox="0 0 47 47" fill="none" xmlns="http://www.w3.org/2000/svg">
<circle cx="23.5" cy="23.5" r="23" stroke="white"/>
<path d="M27.3844 16.8453C26.4038 16.842 25.4321 17.0303 24.5249 17.3994C23.6178 17.7685 22.793 18.3112 22.0978 18.9964C21.4026 19.6817 20.8506 20.496 20.4733 21.3928C20.0961 22.2896 19.9011 23.2513 19.8994 24.2229V31.6765C19.8994 31.9791 20.0207 32.2693 20.2367 32.4832C20.4526 32.6972 20.7455 32.8174 21.051 32.8174H23.7379C24.0433 32.8174 24.3362 32.6972 24.5521 32.4832C24.7681 32.2693 24.8894 31.9791 24.8894 31.6765V24.2229C24.8892 23.8773 24.9624 23.5356 25.1044 23.22C25.2464 22.9044 25.4539 22.6219 25.7135 22.3911C25.9731 22.1603 26.2788 21.9862 26.6108 21.8803C26.9428 21.7744 27.2936 21.739 27.6403 21.7764C28.2622 21.854 28.8336 22.155 29.2464 22.6223C29.6591 23.0896 29.8844 23.6907 29.8794 24.3116V31.6765C29.8794 31.9791 30.0008 32.2693 30.2167 32.4832C30.4327 32.6972 30.7256 32.8174 31.031 32.8174H33.7179C34.0233 32.8174 34.3162 32.6972 34.5322 32.4832C34.7481 32.2693 34.8694 31.9791 34.8694 31.6765V24.2229C34.8678 23.2513 34.6727 22.2896 34.2955 21.3928C33.9183 20.496 33.3663 19.6817 32.6711 18.9964C31.9759 18.3112 31.1511 17.7685 30.2439 17.3994C29.3368 17.0303 28.3651 16.842 27.3844 16.8453Z" fill="white"/>
<path d="M16.4445 17.9857H12.9899C12.3539 17.9857 11.8384 18.4965 11.8384 19.1266V31.6761C11.8384 32.3061 12.3539 32.8169 12.9899 32.8169H16.4445C17.0805 32.8169 17.5961 32.3061 17.5961 31.6761V19.1266C17.5961 18.4965 17.0805 17.9857 16.4445 17.9857Z" fill="white"/>
<path d="M14.7172 15.7043C16.3072 15.7043 17.5961 14.4274 17.5961 12.8522C17.5961 11.277 16.3072 10 14.7172 10C13.1273 10 11.8384 11.277 11.8384 12.8522C11.8384 14.4274 13.1273 15.7043 14.7172 15.7043Z" fill="white"/>
</svg>
