<svg width="274" height="81" viewBox="0 0 274 81" fill="none" xmlns="http://www.w3.org/2000/svg">
<path d="M0 54.0535L27.5461 41.8636L43.4012 51.0061L46.6042 81L27.0657 80.8392L29.9484 59.9879L26.5852 58.0633L10.0895 70.8955L0 54.0535Z" fill="#2A9D8F"/>
<path d="M45.1639 49.722L69.5074 67.5256L79.1163 50.3636L59.5771 42.5042V38.6548L79.1163 30.6349L69.5074 13.633L45.1639 31.437V49.722Z" fill="#2A9D8F"/>
<path d="M43.4012 29.9939L46.6042 0L27.0657 0.320697L29.9484 21.1722L26.5852 23.0969L9.92938 10.2652L0 26.9464L27.5461 39.1364L43.4012 29.9939Z" fill="#2A9D8F"/>
<path d="M117.71 57.0877C115.962 57.0877 114.281 56.8165 112.669 56.274C111.072 55.7164 109.67 54.9252 108.464 53.9005C107.259 52.8607 106.392 51.6174 105.865 50.1707L111.041 48.2719C111.252 48.8747 111.682 49.4247 112.33 49.922C112.978 50.4193 113.769 50.8187 114.703 51.1201C115.638 51.4215 116.64 51.5722 117.71 51.5722C118.81 51.5722 119.835 51.4064 120.784 51.0749C121.748 50.7283 122.525 50.2536 123.112 49.6508C123.7 49.0329 123.994 48.3171 123.994 47.5033C123.994 46.6745 123.685 45.9964 123.067 45.4689C122.449 44.9264 121.658 44.4969 120.694 44.1805C119.729 43.864 118.735 43.6229 117.71 43.4571C115.464 43.1105 113.453 42.5755 111.674 41.8522C109.896 41.1288 108.487 40.1267 107.447 38.8458C106.423 37.5648 105.91 35.9072 105.91 33.8727C105.91 31.9589 106.46 30.2861 107.56 28.8545C108.66 27.4229 110.107 26.3077 111.9 25.509C113.694 24.7103 115.63 24.311 117.71 24.311C119.443 24.311 121.116 24.5822 122.728 25.1247C124.34 25.6673 125.75 26.4584 126.955 27.4982C128.176 28.538 129.05 29.7888 129.577 31.2506L124.378 33.1268C124.167 32.524 123.738 31.974 123.09 31.4767C122.442 30.9793 121.651 30.5875 120.716 30.3012C119.782 29.9998 118.78 29.8491 117.71 29.8491C116.64 29.834 115.623 30.0073 114.658 30.369C113.709 30.7156 112.933 31.1903 112.33 31.7931C111.727 32.3959 111.426 33.0891 111.426 33.8727C111.426 34.8824 111.704 35.6434 112.262 36.1558C112.835 36.6682 113.596 37.0449 114.545 37.286C115.495 37.5121 116.549 37.7231 117.71 37.919C119.82 38.2505 121.771 38.8081 123.564 39.5917C125.358 40.3753 126.797 41.4227 127.882 42.7338C128.967 44.0298 129.509 45.6196 129.509 47.5033C129.509 49.4172 128.967 51.0975 127.882 52.5442C126.797 53.9758 125.358 55.091 123.564 55.8897C121.771 56.6884 119.82 57.0877 117.71 57.0877ZM148.579 33.8953H154.433L142.068 67.8023H136.214L140.305 56.5L132.168 33.8953H138.203L143.063 48.95L148.579 33.8953ZM178.811 42.2139V56.5H173.295V43.6606C173.295 42.7714 173.076 41.9652 172.639 41.2419C172.202 40.5034 171.615 39.9233 170.876 39.5013C170.153 39.0643 169.347 38.8458 168.458 38.8458C167.568 38.8458 166.755 39.0643 166.016 39.5013C165.293 39.9233 164.713 40.5034 164.276 41.2419C163.854 41.9652 163.643 42.7714 163.643 43.6606V56.5H158.127L158.105 33.8953H163.62L163.643 35.9072C164.411 35.0934 165.331 34.4529 166.401 33.9858C167.471 33.5035 168.623 33.2624 169.859 33.2624C171.502 33.2624 173.001 33.6693 174.357 34.4831C175.714 35.2818 176.791 36.3593 177.59 37.7155C178.404 39.0567 178.811 40.5562 178.811 42.2139ZM192.819 57.0877C190.739 57.0877 188.84 56.5527 187.122 55.4828C185.419 54.4128 184.056 52.9737 183.031 51.1653C182.021 49.3569 181.516 47.3602 181.516 45.1751C181.516 43.5325 181.81 41.9953 182.398 40.5637C182.986 39.117 183.792 37.8512 184.817 36.7661C185.856 35.666 187.062 34.8071 188.433 34.1892C189.805 33.5713 191.267 33.2624 192.819 33.2624C194.582 33.2624 196.194 33.6392 197.656 34.3927C199.133 35.1311 200.384 36.1483 201.408 37.4443C202.433 38.7403 203.179 40.2171 203.646 41.8748C204.113 43.5325 204.219 45.2655 203.963 47.0739H187.439C187.65 47.9178 187.996 48.6788 188.479 49.3569C188.961 50.02 189.571 50.555 190.31 50.9619C191.048 51.3537 191.884 51.5571 192.819 51.5722C193.783 51.5873 194.657 51.3612 195.441 50.894C196.24 50.4118 196.903 49.7638 197.43 48.95L203.059 50.2611C202.139 52.2654 200.768 53.908 198.945 55.1889C197.121 56.4548 195.079 57.0877 192.819 57.0877ZM187.258 42.9372H198.379C198.214 42.033 197.86 41.2193 197.317 40.4959C196.79 39.7575 196.134 39.1698 195.35 38.7327C194.567 38.2957 193.723 38.0772 192.819 38.0772C191.915 38.0772 191.078 38.2957 190.31 38.7327C189.541 39.1547 188.885 39.7349 188.343 40.4733C187.816 41.1967 187.454 42.018 187.258 42.9372ZM207.663 56.5L207.641 33.8953H213.156L213.179 35.9072C213.947 35.0934 214.867 34.4529 215.937 33.9858C217.006 33.5035 218.159 33.2624 219.395 33.2624C220.224 33.2624 221.053 33.383 221.882 33.6241L219.712 39.1848C219.139 38.9588 218.566 38.8458 217.994 38.8458C217.104 38.8458 216.291 39.0643 215.552 39.5013C214.829 39.9233 214.249 40.5034 213.812 41.2419C213.39 41.9652 213.179 42.7714 213.179 43.6606V56.5H207.663ZM240.131 33.8953H245.646V56.9295C245.646 58.557 245.315 60.0339 244.652 61.36C243.988 62.7012 243.084 63.8465 241.939 64.7959C240.794 65.7604 239.483 66.4988 238.006 67.0112C236.529 67.5386 234.977 67.8023 233.349 67.8023C231.767 67.8023 230.245 67.4783 228.783 66.8303C227.321 66.1823 226.025 65.2932 224.895 64.163C223.78 63.0478 222.928 61.7744 222.341 60.3428L227.382 58.0597C227.683 58.8886 228.135 59.6119 228.738 60.2298C229.356 60.8627 230.064 61.3525 230.863 61.6991C231.661 62.0607 232.49 62.2416 233.349 62.2416C234.223 62.2416 235.06 62.121 235.858 61.8799C236.672 61.6388 237.403 61.2847 238.051 60.8175C238.699 60.3654 239.204 59.8078 239.565 59.1447C239.942 58.4967 240.131 57.7583 240.131 56.9295V53.7422C239.422 54.7368 238.533 55.5431 237.463 56.1609C236.393 56.7788 235.158 57.0877 233.756 57.0877C232.129 57.0877 230.606 56.7788 229.19 56.1609C227.773 55.5431 226.523 54.6916 225.438 53.6066C224.368 52.5065 223.524 51.2407 222.906 49.809C222.303 48.3774 222.002 46.8403 222.002 45.1977C222.002 43.5551 222.303 42.018 222.906 40.5863C223.524 39.1547 224.368 37.8964 225.438 36.8113C226.523 35.7113 227.773 34.8523 229.19 34.2344C230.606 33.6166 232.129 33.3076 233.756 33.3076C235.158 33.3076 236.393 33.6166 237.463 34.2344C238.533 34.8372 239.422 35.6359 240.131 36.6305V33.8953ZM233.824 51.7756C234.984 51.7756 236.009 51.4818 236.898 50.894C237.802 50.2913 238.511 49.4926 239.023 48.498C239.535 47.4883 239.792 46.3882 239.792 45.1977C239.792 43.9921 239.528 42.892 239 41.8974C238.488 40.9028 237.78 40.1041 236.876 39.5013C235.986 38.8985 234.969 38.5971 233.824 38.5971C232.694 38.5971 231.661 38.8985 230.727 39.5013C229.793 40.089 229.047 40.8802 228.489 41.8748C227.932 42.8694 227.653 43.977 227.653 45.1977C227.653 46.4183 227.932 47.526 228.489 48.5206C229.047 49.5152 229.793 50.3063 230.727 50.894C231.661 51.4818 232.694 51.7756 233.824 51.7756ZM265.178 33.8953H271.033L258.668 67.8023H252.813L256.905 56.5L248.767 33.8953H254.802L259.662 48.95L265.178 33.8953Z" fill="white"/>
</svg>
