<svg width="145" height="43" viewBox="0 0 145 43" fill="none" xmlns="http://www.w3.org/2000/svg">
<path d="M0 28.6951L14.6232 22.2239L23.0401 27.0773L24.7405 43L14.3682 42.9146L15.8985 31.8454L14.1131 30.8237L5.35616 37.6359L0 28.6951Z" fill="#2A9D8F"/>
<path d="M23.9759 26.3956L36.899 35.8469L42 26.7362L31.6274 22.564V20.5204L42 16.263L36.899 7.23728L23.9759 16.6888V26.3956Z" fill="#2A9D8F"/>
<path d="M23.0401 15.9227L24.7405 0L14.3682 0.170247L15.8985 11.2395L14.1131 12.2613L5.27115 5.44944L0 14.3049L14.6232 20.7761L23.0401 15.9227Z" fill="#2A9D8F"/>
<path d="M62.488 29.812C61.56 29.812 60.668 29.668 59.812 29.38C58.964 29.084 58.22 28.664 57.58 28.12C56.94 27.568 56.48 26.908 56.2 26.14L58.948 25.132C59.06 25.452 59.288 25.744 59.632 26.008C59.976 26.272 60.396 26.484 60.892 26.644C61.388 26.804 61.92 26.884 62.488 26.884C63.072 26.884 63.616 26.796 64.12 26.62C64.632 26.436 65.044 26.184 65.356 25.864C65.668 25.536 65.824 25.156 65.824 24.724C65.824 24.284 65.66 23.924 65.332 23.644C65.004 23.356 64.584 23.128 64.072 22.96C63.56 22.792 63.032 22.664 62.488 22.576C61.296 22.392 60.228 22.108 59.284 21.724C58.34 21.34 57.592 20.808 57.04 20.128C56.496 19.448 56.224 18.568 56.224 17.488C56.224 16.472 56.516 15.584 57.1 14.824C57.684 14.064 58.452 13.472 59.404 13.048C60.356 12.624 61.384 12.412 62.488 12.412C63.408 12.412 64.296 12.556 65.152 12.844C66.008 13.132 66.756 13.552 67.396 14.104C68.044 14.656 68.508 15.32 68.788 16.096L66.028 17.092C65.916 16.772 65.688 16.48 65.344 16.216C65 15.952 64.58 15.744 64.084 15.592C63.588 15.432 63.056 15.352 62.488 15.352C61.92 15.344 61.38 15.436 60.868 15.628C60.364 15.812 59.952 16.064 59.632 16.384C59.312 16.704 59.152 17.072 59.152 17.488C59.152 18.024 59.3 18.428 59.596 18.7C59.9 18.972 60.304 19.172 60.808 19.3C61.312 19.42 61.872 19.532 62.488 19.636C63.608 19.812 64.644 20.108 65.596 20.524C66.548 20.94 67.312 21.496 67.888 22.192C68.464 22.88 68.752 23.724 68.752 24.724C68.752 25.74 68.464 26.632 67.888 27.4C67.312 28.16 66.548 28.752 65.596 29.176C64.644 29.6 63.608 29.812 62.488 29.812ZM78.8751 17.5H81.9831L75.4191 35.5H72.3111L74.4831 29.5L70.1631 17.5H73.3671L75.9471 25.492L78.8751 17.5ZM94.9242 21.916V29.5H91.9962V22.684C91.9962 22.212 91.8802 21.784 91.6482 21.4C91.4162 21.008 91.1042 20.7 90.7122 20.476C90.3282 20.244 89.9002 20.128 89.4282 20.128C88.9562 20.128 88.5242 20.244 88.1322 20.476C87.7482 20.7 87.4402 21.008 87.2082 21.4C86.9842 21.784 86.8722 22.212 86.8722 22.684V29.5H83.9442L83.9322 17.5H86.8602L86.8722 18.568C87.2802 18.136 87.7682 17.796 88.3362 17.548C88.9042 17.292 89.5162 17.164 90.1722 17.164C91.0442 17.164 91.8402 17.38 92.5602 17.812C93.2802 18.236 93.8522 18.808 94.2762 19.528C94.7082 20.24 94.9242 21.036 94.9242 21.916ZM102.361 29.812C101.257 29.812 100.249 29.528 99.3366 28.96C98.4326 28.392 97.7086 27.628 97.1646 26.668C96.6286 25.708 96.3606 24.648 96.3606 23.488C96.3606 22.616 96.5166 21.8 96.8286 21.04C97.1406 20.272 97.5686 19.6 98.1126 19.024C98.6646 18.44 99.3046 17.984 100.033 17.656C100.761 17.328 101.537 17.164 102.361 17.164C103.297 17.164 104.153 17.364 104.929 17.764C105.713 18.156 106.377 18.696 106.921 19.384C107.465 20.072 107.861 20.856 108.109 21.736C108.357 22.616 108.413 23.536 108.277 24.496H99.5046C99.6166 24.944 99.8006 25.348 100.057 25.708C100.313 26.06 100.637 26.344 101.029 26.56C101.421 26.768 101.865 26.876 102.361 26.884C102.873 26.892 103.337 26.772 103.753 26.524C104.177 26.268 104.529 25.924 104.809 25.492L107.797 26.188C107.309 27.252 106.581 28.124 105.613 28.804C104.645 29.476 103.561 29.812 102.361 29.812ZM99.4086 22.3H105.313C105.225 21.82 105.037 21.388 104.749 21.004C104.469 20.612 104.121 20.3 103.705 20.068C103.289 19.836 102.841 19.72 102.361 19.72C101.881 19.72 101.437 19.836 101.029 20.068C100.621 20.292 100.273 20.6 99.9846 20.992C99.7046 21.376 99.5126 21.812 99.4086 22.3ZM110.241 29.5L110.229 17.5H113.157L113.169 18.568C113.577 18.136 114.065 17.796 114.633 17.548C115.201 17.292 115.813 17.164 116.469 17.164C116.909 17.164 117.349 17.228 117.789 17.356L116.637 20.308C116.333 20.188 116.029 20.128 115.725 20.128C115.253 20.128 114.821 20.244 114.429 20.476C114.045 20.7 113.737 21.008 113.505 21.4C113.281 21.784 113.169 22.212 113.169 22.684V29.5H110.241ZM127.477 17.5H130.405V29.728C130.405 30.592 130.229 31.376 129.877 32.08C129.525 32.792 129.045 33.4 128.437 33.904C127.829 34.416 127.133 34.808 126.349 35.08C125.565 35.36 124.741 35.5 123.877 35.5C123.037 35.5 122.229 35.328 121.453 34.984C120.677 34.64 119.989 34.168 119.389 33.568C118.797 32.976 118.345 32.3 118.033 31.54L120.709 30.328C120.869 30.768 121.109 31.152 121.429 31.48C121.757 31.816 122.133 32.076 122.557 32.26C122.981 32.452 123.421 32.548 123.877 32.548C124.341 32.548 124.785 32.484 125.209 32.356C125.641 32.228 126.029 32.04 126.373 31.792C126.717 31.552 126.985 31.256 127.177 30.904C127.377 30.56 127.477 30.168 127.477 29.728V28.036C127.101 28.564 126.629 28.992 126.061 29.32C125.493 29.648 124.837 29.812 124.093 29.812C123.229 29.812 122.421 29.648 121.669 29.32C120.917 28.992 120.253 28.54 119.677 27.964C119.109 27.38 118.661 26.708 118.333 25.948C118.013 25.188 117.853 24.372 117.853 23.5C117.853 22.628 118.013 21.812 118.333 21.052C118.661 20.292 119.109 19.624 119.677 19.048C120.253 18.464 120.917 18.008 121.669 17.68C122.421 17.352 123.229 17.188 124.093 17.188C124.837 17.188 125.493 17.352 126.061 17.68C126.629 18 127.101 18.424 127.477 18.952V17.5ZM124.129 26.992C124.745 26.992 125.289 26.836 125.761 26.524C126.241 26.204 126.617 25.78 126.889 25.252C127.161 24.716 127.297 24.132 127.297 23.5C127.297 22.86 127.157 22.276 126.877 21.748C126.605 21.22 126.229 20.796 125.749 20.476C125.277 20.156 124.737 19.996 124.129 19.996C123.529 19.996 122.981 20.156 122.485 20.476C121.989 20.788 121.593 21.208 121.297 21.736C121.001 22.264 120.853 22.852 120.853 23.5C120.853 24.148 121.001 24.736 121.297 25.264C121.593 25.792 121.989 26.212 122.485 26.524C122.981 26.836 123.529 26.992 124.129 26.992ZM140.774 17.5H143.882L137.318 35.5H134.21L136.382 29.5L132.062 17.5H135.266L137.846 25.492L140.774 17.5Z" fill="#04091E"/>
</svg>
