<svg
                    width="64"
                    height="67"
                    viewBox="0 0 64 67"
                    fill="none"
                    xmlns="http://www.w3.org/2000/svg"
                  >
                    <ellipse
                      cx="32"
                      cy="33.3513"
                      rx="32"
                      ry="33.0927"
                      fill="#2A9D8F"
                    />
                    <path
                      d="M19.1992 21.7682C19.1992 21.3293 19.3678 20.9085 19.6678 20.5982C19.9679 20.2879 20.3749 20.1135 20.7992 20.1135H24.244C24.6227 20.1137 24.9891 20.2528 25.278 20.5061C25.5669 20.7594 25.7595 21.1104 25.8216 21.4968L27.0056 28.8351C27.0622 29.1846 27.0088 29.5436 26.8532 29.8594C26.6977 30.1751 26.4483 30.4309 26.1416 30.589L23.6648 31.868C24.553 34.1442 25.8758 36.2119 27.5541 37.9475C29.2324 39.6832 31.2318 41.0511 33.4328 41.9696L34.6712 39.4082C34.8241 39.0914 35.0711 38.8337 35.3761 38.6728C35.6811 38.512 36.0279 38.4566 36.3656 38.5147L43.4616 39.7391C43.8352 39.8034 44.1747 40.0026 44.4196 40.3013C44.6645 40.6 44.799 40.9789 44.7992 41.3706V44.933C44.7992 45.3719 44.6306 45.7927 44.3306 46.103C44.0305 46.4133 43.6236 46.5877 43.1992 46.5877H39.9992C28.5112 46.5877 19.1992 36.9577 19.1992 25.0774V21.7682Z"
                      fill="white"
                    />
                  </svg>