<svg width="44" height="44" viewBox="0 0 44 44" fill="none" xmlns="http://www.w3.org/2000/svg">
<circle cx="21" cy="21" r="10" fill="white"/>
<path fill-rule="evenodd" clip-rule="evenodd" d="M43.0923 22.0462C43.0923 33.6696 33.6696 43.0923 22.0462 43.0923C10.4227 43.0923 1 33.6696 1 22.0462C1 10.4227 10.4227 1 22.0462 1C33.6696 1 43.0923 10.4227 43.0923 22.0462ZM30.4646 22.0462L17.8369 13.6277V30.4646L30.4646 22.0462Z" fill="#2A9D8F"/>
<path d="M17.8369 13.6277L18.1143 13.2117C17.9609 13.1094 17.7636 13.0999 17.601 13.1869C17.4384 13.2739 17.3369 13.4433 17.3369 13.6277H17.8369ZM30.4646 22.0462L30.742 22.4622C30.8811 22.3695 30.9646 22.2134 30.9646 22.0462C30.9646 21.879 30.8811 21.7229 30.742 21.6301L30.4646 22.0462ZM17.8369 30.4646H17.3369C17.3369 30.649 17.4384 30.8185 17.601 30.9055C17.7636 30.9925 17.9609 30.983 18.1143 30.8807L17.8369 30.4646ZM22.0462 43.5923C33.9458 43.5923 43.5923 33.9458 43.5923 22.0462H42.5923C42.5923 33.3935 33.3935 42.5923 22.0462 42.5923V43.5923ZM0.5 22.0462C0.5 33.9458 10.1465 43.5923 22.0462 43.5923V42.5923C10.6988 42.5923 1.5 33.3935 1.5 22.0462H0.5ZM22.0462 0.5C10.1465 0.5 0.5 10.1465 0.5 22.0462H1.5C1.5 10.6988 10.6988 1.5 22.0462 1.5V0.5ZM43.5923 22.0462C43.5923 10.1465 33.9458 0.5 22.0462 0.5V1.5C33.3935 1.5 42.5923 10.6988 42.5923 22.0462H43.5923ZM17.5596 14.0437L30.1873 22.4622L30.742 21.6301L18.1143 13.2117L17.5596 14.0437ZM18.3369 30.4646V13.6277H17.3369V30.4646H18.3369ZM30.1873 21.6301L17.5596 30.0486L18.1143 30.8807L30.742 22.4622L30.1873 21.6301Z" fill="white"/>
</svg>
