<svg width="64" height="64" viewBox="0 0 64 64" fill="none" xmlns="http://www.w3.org/2000/svg">
<path fill-rule="evenodd" clip-rule="evenodd" d="M54.8571 29.8667H55.52C56.0822 29.8637 56.6393 29.972 57.1593 30.1853C57.6792 30.3987 58.1516 30.7128 58.5491 31.1096C58.9466 31.5064 59.2614 31.978 59.4751 32.497C59.6888 33.016 59.7973 33.5722 59.7943 34.1334V39.3811C59.7973 39.6636 59.7439 39.9439 59.637 40.2055C59.5301 40.4671 59.3719 40.7047 59.1718 40.9045C58.9717 41.1043 58.7336 41.2621 58.4715 41.3688C58.2095 41.4755 57.9287 41.5289 57.6457 41.5259H54.8571C54.8571 37.6471 54.8571 33.7683 54.8571 29.9123V29.8667ZM8.59429 29.8667H9.30286C9.30286 33.7455 9.30286 37.6243 9.30286 41.5259H6.42286C6.13985 41.5289 5.85909 41.4755 5.59703 41.3688C5.33497 41.2621 5.09689 41.1043 4.89677 40.9045C4.69664 40.7047 4.5385 40.4671 4.4316 40.2055C4.32471 39.9439 4.27123 39.6636 4.27429 39.3811V34.1334C4.27126 33.5722 4.37974 33.016 4.59347 32.497C4.8072 31.978 5.12193 31.5064 5.51944 31.1096C5.91695 30.7128 6.38935 30.3987 6.90929 30.1853C7.42924 29.972 7.98642 29.8637 8.54857 29.8667H8.59429ZM42.0571 27.9957L42.9029 30.5512C43.0502 30.9721 43.3253 31.3368 43.6899 31.5944C44.0545 31.8521 44.4904 31.9898 44.9371 31.9886H50.6971V44.4236L38.4914 50.5383H29.7143C29.1856 50.593 28.696 50.8413 28.34 51.2353C27.984 51.6294 27.787 52.1411 27.787 52.6717C27.787 53.2023 27.984 53.714 28.34 54.108C28.696 54.502 29.1856 54.7504 29.7143 54.805H38.8571C39.1909 54.8078 39.5204 54.7295 39.8171 54.5769L49.0971 50.0136C48.0542 51.8448 46.6828 53.4689 45.0514 54.805C41.4058 57.9072 36.79 59.6422 32 59.7105C27.2495 59.6158 22.6783 57.8825 19.0629 54.805C17.4732 53.6273 16.1534 52.1247 15.1917 50.3975C14.23 48.6702 13.6484 46.7581 13.4857 44.7886V31.9886H37.9657C38.3026 31.9918 38.6351 31.9123 38.934 31.7571C39.2329 31.602 39.4891 31.3759 39.68 31.0988L42.0571 27.9957ZM32 13.4617C36.1848 13.4515 40.2493 14.8586 43.5293 17.453C46.8092 20.0474 49.1105 23.6757 50.0571 27.7448H46.4229L44.7771 22.8621C44.629 22.4217 44.3417 22.0412 43.9584 21.7779C43.575 21.5146 43.1164 21.3826 42.6514 21.4018C42.3331 21.4157 42.022 21.5008 41.7411 21.6509C41.4602 21.801 41.2167 22.0121 41.0286 22.2688L36.9143 27.8132H14.0571C14.9934 23.7544 17.2741 20.1295 20.5303 17.5251C23.7864 14.9207 27.8276 13.489 32 13.4617ZM26.24 4.33514H37.6686C39.3553 4.32912 41.0265 4.65593 42.5863 5.29678C44.146 5.93763 45.5635 6.87988 46.7572 8.06936C47.951 9.25885 48.8974 10.6721 49.5422 12.2279C50.1869 13.7838 50.5173 15.4514 50.5143 17.1351V18.8236C48.3987 15.8749 45.6094 13.4721 42.3776 11.8145C39.1459 10.157 35.5648 9.29231 31.9314 9.29231C28.298 9.29231 24.717 10.157 21.4852 11.8145C18.2535 13.4721 15.4642 15.8749 13.3486 18.8236V17.0667C13.3454 15.3733 13.6795 13.6962 14.3314 12.1329C14.9833 10.5695 15.94 9.15112 17.1459 7.96011C18.3517 6.7691 19.7828 5.82925 21.3558 5.1952C22.9288 4.56114 24.6123 4.24552 26.3086 4.26669L26.24 4.33514ZM26.24 0.0684707C21.7193 0.0744313 17.3844 1.86505 14.1813 5.04959C10.9782 8.23413 9.167 12.5541 9.14286 17.0667V25.6H8.54857C6.2832 25.606 4.11235 26.507 2.51048 28.106C0.908621 29.705 0.00603297 31.872 0 34.1334V39.3811C0.0119705 41.0778 0.692506 42.7017 1.89444 43.9015C3.09637 45.1013 4.72311 45.7806 6.42286 45.7925H9.28C9.57368 48.2193 10.3497 50.5631 11.5625 52.6866C12.7752 54.8101 14.4005 56.6706 16.3429 58.159C20.7341 61.8362 26.2685 63.8766 32 63.9316C37.7601 63.8759 43.3207 61.8186 47.7257 58.1134C49.6803 56.641 51.3187 54.7917 52.5437 52.6752C53.7687 50.5588 54.5554 48.2182 54.8571 45.7925H57.6C59.2976 45.7805 60.922 45.1005 62.1203 43.9C63.3185 42.6996 63.994 41.0758 64 39.3811V34.1334C63.994 31.876 63.0946 29.7124 61.4976 28.114C59.9007 26.5157 57.7357 25.6121 55.4743 25.6H54.8571V17.0667C54.8391 12.558 53.0368 8.23908 49.8429 5.05091C46.6491 1.86275 42.3225 0.0636773 37.8057 0.0456543L26.24 0.0684707Z" fill="#FFB84F"/>
</svg>
