<svg width="62" height="66" viewBox="0 0 62 66" fill="none" xmlns="http://www.w3.org/2000/svg">
<path d="M47.1192 32.5577C46.7218 32.2398 46.245 31.9749 45.8212 31.6836C45.5298 31.3392 45.1589 31.1008 44.7086 30.9418C41.8742 29.326 38.6689 28.3723 35.4901 28.3723C34.8278 28.3723 34.2186 28.6372 33.7418 29.0875L30.51 32.3458L27.2517 29.114C26.8014 28.6372 26.1656 28.3988 25.5034 28.3988C22.2981 28.3988 19.0398 29.3789 16.2054 31.0213C15.8081 31.1538 15.4902 31.3922 15.2253 31.6836C14.775 31.9749 14.2981 32.2398 13.8743 32.5577C10.5631 35.1537 8.02002 38.9418 8.02002 43.3656V50.8623C8.02002 59.1271 14.7485 65.8291 23.0133 65.8291H38.0066C46.2715 65.8291 53 59.1271 53 50.8623V43.3656C52.9735 38.9418 50.4304 35.1537 47.1192 32.5577ZM36.2848 33.6438C37.6093 33.7498 39.0133 34.0147 40.3642 34.518L37.5033 39.3127L34.0596 35.869L36.2848 33.6438ZM26.9868 35.869L23.5431 39.3127L20.6822 34.518C22.0332 34.0412 23.4372 33.7498 24.7617 33.6438L26.9868 35.869ZM47.9934 50.8623C47.9934 56.4252 43.5695 60.8225 38.0066 60.8225H23.0133C17.424 60.8225 13.0266 56.4252 13.0266 50.8623V43.3656C13.0266 41.0875 14.3246 38.8888 16.3908 37.061L20.8941 44.6371C21.7153 46.0411 23.6491 46.2795 24.8146 45.1405L30.51 39.3921L36.2318 45.114C37.3974 46.253 39.3046 46.0146 40.1523 44.6107L44.6556 37.0345C46.7218 38.8623 48.0198 41.061 48.0198 43.3391V50.8623H47.9934Z" fill="#FFB84F"/>
<path d="M30.5099 23.3922C36.6821 23.3922 41.7682 18.3326 41.7682 12.1604C41.7682 5.98829 36.7086 0.928711 30.5099 0.928711C24.3378 0.928711 19.2782 5.98829 19.2782 12.1604C19.2782 18.3326 24.3113 23.3922 30.5099 23.3922ZM30.5099 5.90882C33.9801 5.90882 36.7616 8.69027 36.7616 12.1604C36.7616 15.6306 33.9801 18.4121 30.5099 18.4121C27.0398 18.4121 24.2848 15.6306 24.2848 12.1604C24.2848 8.69027 27.0133 5.90882 30.5099 5.90882Z" fill="#FFB84F"/>
<path d="M40.4969 48.3457H38.0068C34.6691 48.3457 34.6691 53.3523 38.0068 53.3523H40.4969C43.8081 53.3523 43.8081 48.3457 40.4969 48.3457Z" fill="#FFB84F"/>
</svg>
