<svg width="60" height="53" viewBox="0 0 60 53" fill="none" xmlns="http://www.w3.org/2000/svg">
<g clip-path="url(#clip0_1051_3971)">
<path d="M45 19.228C44.727 19.2302 44.4573 19.2883 44.2078 19.3988C43.9582 19.5093 43.734 19.6698 43.5492 19.8703C43.3643 20.0709 43.2227 20.3072 43.1332 20.5646C43.0436 20.822 43.008 21.0951 43.0286 21.3668V23.3559H41.0143C40.5186 23.4072 40.0596 23.6399 39.7259 24.0093C39.3922 24.3787 39.2075 24.8584 39.2075 25.3557C39.2075 25.8531 39.3922 26.3328 39.7259 26.7022C40.0596 27.0715 40.5186 27.3043 41.0143 27.3555H43.0286V29.366C43.0799 29.8607 43.3131 30.3189 43.6832 30.652C44.0532 30.9851 44.5338 31.1694 45.0321 31.1694C45.5304 31.1694 46.0111 30.9851 46.3811 30.652C46.7512 30.3189 46.9844 29.8607 47.0357 29.366V27.3555H49.0071C49.2877 27.3845 49.5712 27.3544 49.8393 27.2671C50.1074 27.1798 50.3542 27.0373 50.5636 26.8488C50.773 26.6603 50.9405 26.43 51.0551 26.1728C51.1697 25.9156 51.2289 25.6372 51.2289 25.3557C51.2289 25.0742 51.1697 24.7959 51.0551 24.5387C50.9405 24.2815 50.773 24.0512 50.5636 23.8627C50.3542 23.6742 50.1074 23.5316 49.8393 23.4444C49.5712 23.3571 49.2877 23.3269 49.0071 23.3559H47.0357V21.3668C47.0535 21.0904 47.0138 20.8133 46.9192 20.5529C46.8245 20.2925 46.677 20.0544 46.4859 19.8536C46.2948 19.6528 46.0641 19.4936 45.8084 19.3859C45.5527 19.2782 45.2775 19.2245 45 19.228ZM45 13.2821C45.1627 13.2498 45.3302 13.2498 45.4929 13.2821L55.95 17.0892C55.4786 30.3499 48.9 34.4778 45 36.9588C41.0786 34.4778 34.5214 30.3499 34.05 17.0892L44.4857 13.2821C44.6565 13.2615 44.8292 13.2615 45 13.2821ZM15 3.9996C17.5416 4.09386 20.0303 4.7514 22.2857 5.92454L19.2857 7.25061C19.0437 7.35032 18.8237 7.49663 18.6384 7.68119C18.453 7.86574 18.3059 8.08493 18.2054 8.32624C18.1049 8.56755 18.0531 8.82625 18.0527 9.08757C18.0524 9.3489 18.1037 9.60772 18.2036 9.84927C18.3035 10.0908 18.4501 10.3104 18.635 10.4954C18.8199 10.6804 19.0395 10.8272 19.2812 10.9275C19.523 11.0278 19.7822 11.0796 20.044 11.0799C20.3058 11.0802 20.5651 11.0291 20.8071 10.9294C26.6571 8.64084 29.1 7.63559 33.6643 6.01009C36.0105 4.90641 38.5364 4.23266 41.1214 4.02098C43.3787 4.02179 45.5805 4.71886 47.4256 6.01678C49.2707 7.3147 50.6688 9.15004 51.4286 11.2716L46.9071 9.6247C45.7012 9.19728 44.3845 9.19728 43.1786 9.6247L32.4643 13.4746C31.7107 13.7267 31.0611 14.2193 30.6158 14.8764C30.1705 15.5335 29.9541 16.3186 30 17.1106C30.45 32.0823 39.0857 38.0282 43.0286 40.6376C43.2126 40.7475 43.4063 40.8406 43.6071 40.9157L42.8571 45.9205C42.7442 46.8187 42.2898 47.6392 41.5879 48.2125C40.8859 48.7857 39.9901 49.0678 39.0857 49.0004C38.1328 49.0831 37.1787 48.8545 36.3671 48.3492C35.5555 47.8439 34.9304 47.0891 34.5857 46.1985L32.55 38.5416C32.3005 37.4833 31.7025 36.5393 30.8516 35.8607C30.0007 35.182 28.9463 34.808 27.8571 34.7986C26.7839 34.8384 25.756 35.241 24.9423 35.9406C24.1285 36.6401 23.5771 37.595 23.3786 38.6485C22.8857 40.4023 21.9429 44.0169 21.2357 46.3269C20.1214 49.9415 13.4786 49.4282 13.0071 45.8991L11.1 30.136C10.7209 27.9878 9.7487 25.9879 8.29286 24.3612C7.17972 22.998 6.14931 21.5696 5.20714 20.0835C4.40834 18.544 3.99651 16.8338 4.00714 15.1001C3.98724 13.6477 4.25705 12.2058 4.80084 10.8584C5.34463 9.5111 6.15155 8.2852 7.1746 7.25213C8.19766 6.21906 9.4164 5.39946 10.7599 4.84106C12.1033 4.28266 13.5447 3.99662 15 3.9996ZM15 0C11.0218 0 7.20644 1.57738 4.3934 4.38512C1.58035 7.19287 1.19609e-06 11.001 1.19609e-06 14.9718C-0.000949435 17.3378 0.564771 19.6697 1.65 21.7732C2.64343 23.4865 3.78339 25.111 5.05714 26.6283C6.08824 27.7335 6.82503 29.0793 7.2 30.5424L9.23571 46.498C10.6714 54.5827 23.3143 54.6897 25.2857 47.268C25.9714 44.6586 26.6571 42.0492 27.4286 39.4399C27.4286 38.9693 27.75 38.7127 28.1357 38.7127C28.5214 38.7127 28.7143 39.0549 28.8429 39.4399C29.55 42.092 30.2571 44.7869 30.9857 47.4177C31.6285 49.0994 32.7864 50.5359 34.2945 51.5228C35.8027 52.5097 37.5842 52.9967 39.3857 52.9144C41.1994 52.8888 42.9478 52.2347 44.3316 51.0642C45.7154 49.8937 46.6486 48.2795 46.9714 46.498C47.2714 44.3592 47.5286 42.2203 47.8071 40.0815C51.8571 37.3438 59.5714 31.3337 60 17.1106C60.0482 16.3152 59.8302 15.5264 59.3803 14.8682C58.9303 14.21 58.2739 13.7198 57.5143 13.4746L55.8643 12.8757C55.3489 9.31179 53.5639 6.05265 50.8365 3.69569C48.1091 1.33873 44.6219 0.0418526 41.0143 0.0427769C37.7889 0.13652 34.6286 0.970859 31.7786 2.48103C30.5849 2.98339 29.3026 3.24219 28.0071 3.24219C26.7117 3.24219 25.4294 2.98339 24.2357 2.48103C21.3384 1.08813 18.2063 0.246737 15 0Z" fill="#FFB84F"/>
</g>
<defs>
<clipPath id="clip0_1051_3971">
<rect width="60" height="53" fill="white"/>
</clipPath>
</defs>
</svg>
