<svg width="56" height="60" viewBox="0 0 56 60" fill="none" xmlns="http://www.w3.org/2000/svg">
<path d="M4.02303 46.5H8.04608V55.9929H4.02303C4.13059 55.9929 4.02303 55.9929 4.02303 55.7571V46.7571C4.02303 46.4786 4.13059 46.5 4.02303 46.5ZM14.0699 42H30.033C30.0838 42.835 30.0838 43.6722 30.033 44.5071C30.0689 44.8029 30.0455 45.1029 29.9641 45.3896C29.8827 45.6763 29.7449 45.944 29.5588 46.1773C29.3726 46.4105 29.1418 46.6046 28.8798 46.7483C28.6177 46.892 28.3297 46.9824 28.0322 47.0143H19.8786C19.3782 47.0854 18.9227 47.3406 18.6018 47.7296C18.2809 48.1186 18.1179 48.6132 18.1449 49.1159C18.1719 49.6187 18.3869 50.0931 18.7476 50.4458C19.1083 50.7985 19.5886 51.0039 20.0937 51.0214H35.7126C35.8976 51.0539 36.0869 51.0539 36.272 51.0214L49.8686 47.1214C50.0508 47.0457 50.2511 47.0237 50.4455 47.0578C50.64 47.092 50.8205 47.181 50.9658 47.3143C51.4191 47.6741 51.7436 48.1702 51.8909 48.7286C52.1435 49.349 52.1433 50.0431 51.8902 50.6634C51.6371 51.2836 51.1511 51.7811 50.5355 52.05C45.8842 53.6466 41.1518 54.9984 36.358 56.1H12.0476V44.5071C11.9981 43.9108 12.1803 43.3182 12.5565 42.8517C12.9328 42.3852 13.4745 42.0803 14.0699 42ZM14.0699 37.9929C12.7553 38.0355 11.4893 38.498 10.4588 39.3121C9.42838 40.1263 8.68809 41.2489 8.34727 42.5143H4.04454C2.94123 42.5534 1.89843 43.0264 1.14443 43.8296C0.390424 44.6328 -0.0133531 45.7009 0.0214907 46.8V55.7143C-0.0133531 56.8134 0.390424 57.8815 1.14443 58.6847C1.89843 59.4879 2.94123 59.9609 4.04454 60H36.6162C36.7372 60.0208 36.8609 60.0208 36.9819 60C42.0801 58.8601 47.1082 57.4292 52.0415 55.7143H52.3427C53.7802 54.9919 54.917 53.789 55.5542 52.3161C56.1913 50.8432 56.2882 49.194 55.8279 47.6571C55.448 46.2358 54.5993 44.983 53.4183 44.1C52.7678 43.6246 52.0155 43.3056 51.2205 43.168C50.4255 43.0305 49.6094 43.0781 48.8359 43.3071L35.519 47.1429H33.7549C34.0644 46.3428 34.2248 45.4931 34.2282 44.6357C34.3215 43.3187 34.2053 41.9952 33.884 40.7143C33.6886 39.9306 33.2432 39.2313 32.6146 38.7214C31.8985 38.2191 31.0374 37.9633 30.1621 37.9929H14.0699ZM26.1175 12.0214V16.0071H21.8148C21.3144 16.0783 20.8589 16.3335 20.538 16.7225C20.2171 17.1115 20.0541 17.606 20.0811 18.1088C20.1081 18.6115 20.3231 19.086 20.6838 19.4387C21.0445 19.7914 21.5248 19.9967 22.0299 20.0143H26.053V24.0214C26.053 24.55 26.2638 25.0569 26.639 25.4306C27.0142 25.8043 27.5231 26.0143 28.0538 26.0143C28.5844 26.0143 29.0933 25.8043 29.4685 25.4306C29.8437 25.0569 30.0545 24.55 30.0545 24.0214V20.0143H34.0776C34.3592 20.0433 34.6438 20.0132 34.913 19.9257C35.1822 19.8382 35.4299 19.6955 35.6402 19.5066C35.8505 19.3177 36.0186 19.087 36.1336 18.8293C36.2487 18.5716 36.3082 18.2927 36.3082 18.0107C36.3082 17.7287 36.2487 17.4498 36.1336 17.1921C36.0186 16.9345 35.8505 16.7037 35.6402 16.5148C35.4299 16.326 35.1822 16.1832 34.913 16.0957C34.6438 16.0083 34.3592 15.9781 34.0776 16.0071H30.1621V12.0214C30.1621 11.4929 29.9513 10.986 29.5761 10.6123C29.2009 10.2385 28.692 10.0286 28.1613 10.0286C27.6307 10.0286 27.1218 10.2385 26.7466 10.6123C26.3714 10.986 26.1606 11.4929 26.1606 12.0214H26.1175ZM28.1183 4.00714C31.9894 4.09368 35.8083 4.91553 39.3699 6.42857C40.7411 6.94608 42.0252 7.66865 43.1778 8.57143C43.9954 9.3 44.189 9.83572 44.189 10.0071C43.7535 14.7387 42.0522 19.2674 39.2624 23.1214C36.6881 27.1978 32.7477 30.2345 28.1398 31.6929C23.5134 30.2485 19.5549 27.2097 16.9742 23.1214C14.1892 19.2666 12.4952 14.7373 12.0691 10.0071C12.0691 9.83572 12.2412 9.3 13.0803 8.57143C14.2217 7.66369 15.4995 6.94056 16.8667 6.42857C20.4277 4.91351 24.247 4.09157 28.1183 4.00714ZM28.1183 0C23.6804 0.0373101 19.2937 0.947597 15.2101 2.67857C13.4656 3.38056 11.8458 4.3573 10.4126 5.57143C9.72183 6.0985 9.153 6.76741 8.74468 7.53276C8.33636 8.29811 8.0981 9.14199 8.04608 10.0071C8.39792 15.5593 10.3473 20.8932 13.6611 25.3714C17.1033 30.4071 21.9224 34.8214 27.7311 35.9571C27.9852 36.0215 28.2514 36.0215 28.5055 35.9571C34.3142 34.8214 39.1118 30.4071 42.5755 25.3714C45.8893 20.8932 47.8387 15.5593 48.1905 10.0071C48.1427 9.14105 47.9063 8.29569 47.4977 7.52972C47.089 6.76376 46.5179 6.09554 45.824 5.57143C44.3581 4.3474 42.7013 3.37024 40.9189 2.67857C36.868 0.963468 32.5196 0.0535524 28.1183 0Z" fill="#FFB84F"/>
</svg>
