<svg width="28" height="27" viewBox="0 0 28 27" fill="none" xmlns="http://www.w3.org/2000/svg">
<circle cx="14.2234" cy="13.5" r="13" stroke="white"/>
<path d="M16.4546 9.67727C15.8912 9.67536 15.333 9.78351 14.8119 9.99555C14.2908 10.2076 13.817 10.5194 13.4176 10.913C13.0182 11.3067 12.7011 11.7745 12.4844 12.2896C12.2677 12.8048 12.1557 13.3573 12.1547 13.9154V18.1973C12.1547 18.3711 12.2244 18.5378 12.3485 18.6608C12.4725 18.7837 12.6408 18.8527 12.8162 18.8527H14.3598C14.5352 18.8527 14.7035 18.7837 14.8275 18.6608C14.9516 18.5378 15.0213 18.3711 15.0213 18.1973V13.9154C15.0212 13.7169 15.0632 13.5206 15.1448 13.3393C15.2264 13.158 15.3456 12.9958 15.4947 12.8631C15.6438 12.7305 15.8195 12.6306 16.0102 12.5697C16.2009 12.5089 16.4024 12.4885 16.6016 12.51C16.9588 12.5546 17.2871 12.7275 17.5242 12.9959C17.7613 13.2644 17.8907 13.6097 17.8879 13.9664V18.1973C17.8879 18.3711 17.9576 18.5378 18.0817 18.6608C18.2057 18.7837 18.374 18.8527 18.5494 18.8527H20.093C20.2684 18.8527 20.4367 18.7837 20.5608 18.6608C20.6848 18.5378 20.7545 18.3711 20.7545 18.1973V13.9154C20.7535 13.3573 20.6415 12.8048 20.4248 12.2896C20.2081 11.7745 19.891 11.3067 19.4916 10.913C19.0922 10.5194 18.6184 10.2076 18.0973 9.99555C17.5762 9.78351 17.018 9.67536 16.4546 9.67727Z" fill="white"/>
<path d="M10.1703 10.332H8.1857C7.82035 10.332 7.52417 10.6255 7.52417 10.9874V18.1967C7.52417 18.5587 7.82035 18.8521 8.1857 18.8521H10.1703C10.5356 18.8521 10.8318 18.5587 10.8318 18.1967V10.9874C10.8318 10.6255 10.5356 10.332 10.1703 10.332Z" fill="white"/>
<path d="M9.17799 9.02157C10.0914 9.02157 10.8318 8.288 10.8318 7.3831C10.8318 6.4782 10.0914 5.74463 9.17799 5.74463C8.26461 5.74463 7.52418 6.4782 7.52418 7.3831C7.52418 8.288 8.26461 9.02157 9.17799 9.02157Z" fill="white"/>
</svg>
