<svg width="27" height="27" viewBox="0 0 27 27" fill="none" xmlns="http://www.w3.org/2000/svg">
<circle cx="13.5" cy="13.5" r="13.5" fill="white"/>
<path d="M17.0912 7.83643C17.0912 7.73986 17.0525 7.64725 16.9836 7.57897C16.9147 7.51068 16.8212 7.47232 16.7237 7.47232H14.8861C13.9608 7.42666 13.0549 7.74569 12.3663 8.3597C11.6776 8.97372 11.2623 9.83281 11.211 10.7493V12.7154H9.37345C9.27598 12.7154 9.1825 12.7538 9.11358 12.8221C9.04466 12.8904 9.00594 12.983 9.00594 13.0795V14.9729C9.00594 15.0694 9.04466 15.1621 9.11358 15.2303C9.1825 15.2986 9.27598 15.337 9.37345 15.337H11.211V20.216C11.211 20.3126 11.2497 20.4052 11.3187 20.4734C11.3876 20.5417 11.4811 20.5801 11.5785 20.5801H13.7836C13.8811 20.5801 13.9746 20.5417 14.0435 20.4734C14.1124 20.4052 14.1511 20.3126 14.1511 20.216V15.337H16.0769C16.1586 15.3381 16.2384 15.3123 16.3036 15.2635C16.3689 15.2147 16.4158 15.1457 16.4371 15.0675L16.9663 13.1742C16.9809 13.1204 16.9829 13.064 16.972 13.0093C16.9612 12.9547 16.9378 12.9032 16.9037 12.8589C16.8696 12.8145 16.8258 12.7786 16.7754 12.7537C16.7251 12.7288 16.6697 12.7157 16.6135 12.7154H14.1511V10.7493C14.1694 10.569 14.2548 10.402 14.3908 10.2808C14.5267 10.1596 14.7033 10.093 14.8861 10.0939H16.7237C16.8212 10.0939 16.9147 10.0555 16.9836 9.98723C17.0525 9.91895 17.0912 9.82634 17.0912 9.72977V7.83643Z" fill="black"/>
</svg>
