<svg width="28" height="27" viewBox="0 0 28 27" fill="none" xmlns="http://www.w3.org/2000/svg">
<path d="M11.8968 19.1171C12.9837 19.1531 14.0669 18.9729 15.0822 18.5872C16.0976 18.2014 17.0247 17.6179 17.8086 16.8712C18.5925 16.1244 19.2173 15.2295 19.6462 14.2395C20.0751 13.2494 20.2993 12.1842 20.3055 11.1068C20.8036 10.4961 21.1735 9.79297 21.3934 9.03867C21.4098 8.97907 21.4085 8.91605 21.3896 8.85718C21.3707 8.79831 21.335 8.74612 21.2868 8.70687C21.2387 8.66763 21.1801 8.64301 21.1181 8.63599C21.0562 8.62897 20.9935 8.63983 20.9377 8.66728C20.6771 8.79156 20.3837 8.8317 20.0989 8.78205C19.8141 8.73241 19.5521 8.59548 19.35 8.39056C19.092 8.11062 18.7798 7.88485 18.4321 7.7266C18.0844 7.56836 17.7082 7.48088 17.3257 7.46933C16.9432 7.45779 16.5623 7.52242 16.2055 7.6594C15.8487 7.79637 15.5233 8.00291 15.2486 8.26677C14.8724 8.62771 14.5968 9.07893 14.4487 9.57658C14.3006 10.0742 14.2849 10.6014 14.4033 11.1068C11.9409 11.2524 10.2504 10.0946 8.89792 8.50708C8.85729 8.46149 8.80414 8.42862 8.74497 8.41246C8.68579 8.39631 8.62314 8.39757 8.56468 8.41611C8.50622 8.43464 8.45447 8.46964 8.41575 8.51683C8.37703 8.56402 8.35302 8.62136 8.34665 8.68185C8.089 10.0978 8.27486 11.5579 8.87927 12.8662C9.48367 14.1744 10.4777 15.2681 11.7278 16.0004C10.8896 16.9527 9.71249 17.5475 8.44221 17.6607C8.37415 17.6718 8.31133 17.7038 8.26253 17.7521C8.21373 17.8004 8.1814 17.8627 8.17006 17.9301C8.15872 17.9975 8.16894 18.0667 8.19928 18.1281C8.22963 18.1895 8.27859 18.2399 8.3393 18.2724C9.44443 18.8195 10.6614 19.1085 11.8968 19.1171Z" fill="white"/>
<circle cx="14.2872" cy="13.5" r="13" stroke="white"/>
</svg>
