<svg width="34" height="34" viewBox="0 0 34 34" fill="none" xmlns="http://www.w3.org/2000/svg">
<path d="M24.3873 11.514C23.7817 11.7831 23.1424 11.9513 22.4696 12.0523C23.1424 11.6485 23.6807 11.0093 23.9163 10.2355C23.277 10.6056 22.5705 10.8747 21.7967 11.043C21.1911 10.4037 20.3164 10 19.3744 10C17.5576 10 16.0773 11.4803 16.0773 13.2971C16.0773 13.5662 16.1109 13.8017 16.1782 14.0372C13.4531 13.9027 10.9971 12.5906 9.34852 10.5719C9.07937 11.0766 8.91116 11.6149 8.91116 12.2205C8.91116 13.3644 9.4831 14.3737 10.3915 14.9793C9.85318 14.9456 9.34852 14.8111 8.87751 14.5755V14.6092C8.87751 16.2241 10.0214 17.5698 11.5354 17.8726C11.2662 17.9399 10.9634 17.9736 10.6606 17.9736C10.4588 17.9736 10.2233 17.9399 10.0214 17.9063C10.4588 19.2184 11.6699 20.194 13.1166 20.194C11.9727 21.0688 10.5597 21.6071 9.01209 21.6071C8.74294 21.6071 8.47379 21.6071 8.23828 21.5734C9.7186 22.5155 11.4344 23.0538 13.3185 23.0538C19.408 23.0538 22.7387 18.0072 22.7387 13.6335C22.7387 13.4989 22.7387 13.3307 22.7387 13.1962C23.378 12.7588 23.9499 12.1868 24.3873 11.514Z" fill="white"/>
</svg>
