<svg width="47" height="47" viewBox="0 0 47 47" fill="none" xmlns="http://www.w3.org/2000/svg">
<path d="M19.3384 33.278C21.2304 33.3407 23.1159 33.0271 24.8834 32.3556C26.651 31.6841 28.2647 30.6683 29.6292 29.3684C30.9938 28.0685 32.0815 26.5108 32.8281 24.7873C33.5746 23.0638 33.9649 21.2096 33.9758 19.3342C34.8429 18.2711 35.4867 17.0471 35.8695 15.7341C35.898 15.6304 35.8957 15.5206 35.8628 15.4182C35.8299 15.3157 35.7678 15.2248 35.684 15.1565C35.6002 15.0882 35.4982 15.0454 35.3903 15.0331C35.2825 15.0209 35.1734 15.0398 35.0762 15.0876C34.6226 15.3039 34.1119 15.3738 33.6161 15.2874C33.1203 15.201 32.6643 14.9626 32.3125 14.6059C31.8633 14.1186 31.32 13.7256 30.7147 13.4501C30.1094 13.1747 29.4545 13.0224 28.7887 13.0023C28.1229 12.9822 27.4598 13.0947 26.8387 13.3331C26.2177 13.5716 25.6512 13.9311 25.1729 14.3904C24.5181 15.0187 24.0384 15.8042 23.7806 16.6705C23.5228 17.5367 23.4955 18.4544 23.7015 19.3342C19.4152 19.5877 16.4724 17.5722 14.1181 14.8087C14.0474 14.7294 13.9549 14.6722 13.8519 14.644C13.7488 14.6159 13.6398 14.6181 13.538 14.6504C13.4363 14.6826 13.3462 14.7436 13.2788 14.8257C13.2114 14.9079 13.1696 15.0077 13.1585 15.113C12.71 17.5778 13.0335 20.1195 14.0856 22.3968C15.1378 24.6741 16.8681 26.578 19.0442 27.8526C17.5851 29.5104 15.5361 30.5459 13.3248 30.7428C13.2064 30.7622 13.097 30.8179 13.0121 30.902C12.9271 30.9861 12.8708 31.0944 12.8511 31.2117C12.8314 31.3291 12.8491 31.4496 12.902 31.5564C12.9548 31.6633 13.04 31.7511 13.1457 31.8076C15.0694 32.76 17.1879 33.263 19.3384 33.278Z" fill="white"/>
<circle cx="23.5" cy="23.5" r="23" stroke="white"/>
</svg>
