<svg width="148" height="32" viewBox="0 0 148 32" fill="none" xmlns="http://www.w3.org/2000/svg">
<path fill-rule="evenodd" clip-rule="evenodd" d="M16.8334 19.5743C21.1249 19.5743 24.6039 16.0953 24.6039 11.8038C24.6039 7.51225 21.1249 4.03327 16.8334 4.03327H9.06287V11.8038C9.06287 16.0953 12.5418 19.5743 16.8334 19.5743ZM28.4891 11.8038C28.4891 18.2411 23.2707 23.4596 16.8334 23.4596C10.3961 23.4596 5.17761 18.2411 5.17761 11.8038V0.14801H16.8334C23.2707 0.14801 28.4891 5.36648 28.4891 11.8038Z" fill="#141313"/>
<path fill-rule="evenodd" clip-rule="evenodd" d="M16.8334 27.9667C21.125 27.9667 24.604 24.4877 24.604 20.1962C24.604 15.9046 21.125 12.4257 16.8334 12.4257H9.06293V20.1962C9.06293 24.4877 12.5419 27.9667 16.8334 27.9667ZM28.4892 20.1962C28.4892 26.6335 23.2707 31.852 16.8334 31.852C10.3961 31.852 5.17767 26.6335 5.17767 20.1962V8.54041H16.8334C23.2707 8.54041 28.4892 13.7589 28.4892 20.1962Z" fill="#141313"/>
<path d="M41.2266 25V6.38183H48.6811C50.0508 6.38183 51.1932 6.58486 52.1084 6.99092C53.0235 7.39698 53.7114 7.96062 54.172 8.68183C54.6326 9.39698 54.8629 10.2212 54.8629 11.1546C54.8629 11.8818 54.7175 12.5212 54.4265 13.0727C54.1356 13.6182 53.7356 14.0667 53.2265 14.4182C52.7235 14.7636 52.1478 15.0091 51.4993 15.1546V15.3364C52.2084 15.3667 52.872 15.5667 53.4902 15.9364C54.1144 16.3061 54.6205 16.8242 55.0084 17.4909C55.3962 18.1515 55.5902 18.9394 55.5902 19.8545C55.5902 20.8424 55.3447 21.7242 54.8538 22.5C54.369 23.2697 53.6508 23.8788 52.6993 24.3273C51.7478 24.7758 50.575 25 49.1811 25H41.2266ZM45.1629 21.7818H48.372C49.469 21.7818 50.269 21.5727 50.772 21.1545C51.275 20.7303 51.5265 20.1667 51.5265 19.4636C51.5265 18.9485 51.4023 18.4939 51.1538 18.1C50.9053 17.7061 50.5508 17.397 50.0902 17.1727C49.6356 16.9485 49.0932 16.8364 48.4629 16.8364H45.1629V21.7818ZM45.1629 14.1727H48.0811C48.6205 14.1727 49.0993 14.0788 49.5175 13.8909C49.9417 13.697 50.275 13.4243 50.5175 13.0727C50.7659 12.7212 50.8902 12.3 50.8902 11.8091C50.8902 11.1364 50.6508 10.5939 50.172 10.1818C49.6993 9.76971 49.0266 9.56365 48.1538 9.56365H45.1629V14.1727ZM62.8425 25.2727C61.4061 25.2727 60.1697 24.9818 59.1334 24.4C58.1031 23.8121 57.3091 22.9818 56.7515 21.9091C56.194 20.8303 55.9152 19.5545 55.9152 18.0818C55.9152 16.6455 56.194 15.3849 56.7515 14.3C57.3091 13.2152 58.094 12.3697 59.1061 11.7636C60.1243 11.1576 61.3182 10.8546 62.6879 10.8546C63.6091 10.8546 64.4667 11.003 65.2606 11.3C66.0606 11.5909 66.7576 12.0303 67.3515 12.6182C67.9515 13.2061 68.4182 13.9455 68.7515 14.8364C69.0849 15.7212 69.2515 16.7576 69.2515 17.9455V19.0091H57.4606V16.6091H65.6061C65.6061 16.0515 65.4849 15.5576 65.2424 15.1273C65 14.697 64.6637 14.3606 64.2334 14.1182C63.8091 13.8697 63.3152 13.7455 62.7515 13.7455C62.1637 13.7455 61.6425 13.8818 61.1879 14.1546C60.7394 14.4212 60.3879 14.7818 60.1334 15.2364C59.8788 15.6849 59.7485 16.1849 59.7425 16.7364V19.0182C59.7425 19.7091 59.8697 20.3061 60.1243 20.8091C60.3849 21.3121 60.7515 21.7 61.2243 21.9727C61.697 22.2455 62.2576 22.3818 62.9061 22.3818C63.3364 22.3818 63.7303 22.3212 64.0879 22.2C64.4455 22.0788 64.7515 21.897 65.0061 21.6545C65.2606 21.4121 65.4546 21.1152 65.5879 20.7636L69.1697 21C68.9879 21.8606 68.6152 22.6121 68.0515 23.2545C67.494 23.8909 66.7728 24.3879 65.8879 24.7455C65.0091 25.097 63.994 25.2727 62.8425 25.2727ZM81.797 15.0182L78.2515 15.2364C78.1909 14.9333 78.0606 14.6606 77.8606 14.4182C77.6606 14.1697 77.397 13.9727 77.0697 13.8273C76.7485 13.6758 76.3637 13.6 75.9152 13.6C75.3152 13.6 74.8091 13.7273 74.397 13.9818C73.9849 14.2303 73.7788 14.5636 73.7788 14.9818C73.7788 15.3152 73.9121 15.597 74.1788 15.8273C74.4455 16.0576 74.903 16.2424 75.5515 16.3818L78.0788 16.8909C79.4364 17.1697 80.4485 17.6182 81.1152 18.2364C81.7818 18.8545 82.1152 19.6667 82.1152 20.6727C82.1152 21.5879 81.8455 22.3909 81.3061 23.0818C80.7727 23.7727 80.0394 24.3121 79.1061 24.7C78.1788 25.0818 77.1091 25.2727 75.897 25.2727C74.0485 25.2727 72.5758 24.8879 71.4788 24.1182C70.3879 23.3424 69.7485 22.2879 69.5606 20.9545L73.3697 20.7545C73.4849 21.3182 73.7637 21.7485 74.2061 22.0455C74.6485 22.3364 75.2152 22.4818 75.9061 22.4818C76.5849 22.4818 77.1303 22.3515 77.5424 22.0909C77.9606 21.8242 78.1727 21.4818 78.1788 21.0636C78.1727 20.7121 78.0243 20.4242 77.7333 20.2C77.4424 19.9697 76.994 19.7939 76.3879 19.6727L73.9697 19.1909C72.6061 18.9182 71.5909 18.4455 70.9243 17.7727C70.2637 17.1 69.9334 16.2424 69.9334 15.2C69.9334 14.303 70.1758 13.5303 70.6606 12.8818C71.1515 12.2333 71.8394 11.7333 72.7243 11.3818C73.6152 11.0303 74.6576 10.8546 75.8515 10.8546C77.6152 10.8546 79.003 11.2273 80.0152 11.9727C81.0333 12.7182 81.6273 13.7333 81.797 15.0182ZM90.3811 11.0364V13.9455H81.972V11.0364H90.3811ZM83.8811 7.69092H87.7538V20.7091C87.7538 21.0667 87.8083 21.3455 87.9174 21.5455C88.0265 21.7394 88.178 21.8758 88.372 21.9545C88.572 22.0333 88.8023 22.0727 89.0629 22.0727C89.2447 22.0727 89.4265 22.0576 89.6083 22.0273C89.7902 21.9909 89.9296 21.9636 90.0265 21.9455L90.6356 24.8273C90.4417 24.8879 90.1689 24.9576 89.8174 25.0364C89.4659 25.1212 89.0386 25.1727 88.5356 25.1909C87.6023 25.2273 86.7841 25.103 86.0811 24.8182C85.3841 24.5333 84.8417 24.0909 84.4538 23.4909C84.0659 22.8909 83.875 22.1333 83.8811 21.2182V7.69092ZM91.6765 25V6.38183H99.1311C100.501 6.38183 101.643 6.58486 102.558 6.99092C103.473 7.39698 104.161 7.96062 104.622 8.68183C105.083 9.39698 105.313 10.2212 105.313 11.1546C105.313 11.8818 105.167 12.5212 104.877 13.0727C104.586 13.6182 104.186 14.0667 103.677 14.4182C103.173 14.7636 102.598 15.0091 101.949 15.1546V15.3364C102.658 15.3667 103.322 15.5667 103.94 15.9364C104.564 16.3061 105.07 16.8242 105.458 17.4909C105.846 18.1515 106.04 18.9394 106.04 19.8545C106.04 20.8424 105.795 21.7242 105.304 22.5C104.819 23.2697 104.101 23.8788 103.149 24.3273C102.198 24.7758 101.025 25 99.6311 25H91.6765ZM95.6129 21.7818H98.822C99.9189 21.7818 100.719 21.5727 101.222 21.1545C101.725 20.7303 101.977 20.1667 101.977 19.4636C101.977 18.9485 101.852 18.4939 101.604 18.1C101.355 17.7061 101.001 17.397 100.54 17.1727C100.086 16.9485 99.5432 16.8364 98.9129 16.8364H95.6129V21.7818ZM95.6129 14.1727H98.5311C99.0705 14.1727 99.5492 14.0788 99.9674 13.8909C100.392 13.697 100.725 13.4243 100.967 13.0727C101.216 12.7212 101.34 12.3 101.34 11.8091C101.34 11.1364 101.101 10.5939 100.622 10.1818C100.149 9.76971 99.4765 9.56365 98.6038 9.56365H95.6129V14.1727ZM110.911 25.2636C110.02 25.2636 109.226 25.1091 108.529 24.8C107.832 24.4848 107.28 24.0212 106.874 23.4091C106.474 22.7909 106.274 22.0212 106.274 21.1C106.274 20.3242 106.417 19.6727 106.702 19.1455C106.986 18.6182 107.374 18.1939 107.865 17.8727C108.356 17.5515 108.914 17.3091 109.538 17.1455C110.168 16.9818 110.829 16.8667 111.52 16.8C112.332 16.7152 112.986 16.6364 113.483 16.5636C113.98 16.4849 114.341 16.3697 114.565 16.2182C114.789 16.0667 114.902 15.8424 114.902 15.5455V15.4909C114.902 14.9152 114.72 14.4697 114.356 14.1546C113.998 13.8394 113.489 13.6818 112.829 13.6818C112.132 13.6818 111.577 13.8364 111.165 14.1455C110.753 14.4485 110.48 14.8303 110.347 15.2909L106.765 15C106.947 14.1515 107.305 13.4182 107.838 12.8C108.371 12.1758 109.059 11.697 109.902 11.3636C110.75 11.0243 111.732 10.8546 112.847 10.8546C113.623 10.8546 114.365 10.9455 115.074 11.1273C115.789 11.3091 116.423 11.5909 116.974 11.9727C117.532 12.3546 117.971 12.8455 118.292 13.4455C118.614 14.0394 118.774 14.7515 118.774 15.5818V25H115.102V23.0636H114.992C114.768 23.5 114.468 23.8848 114.092 24.2182C113.717 24.5455 113.265 24.803 112.738 24.9909C112.211 25.1727 111.602 25.2636 110.911 25.2636ZM112.02 22.5909C112.589 22.5909 113.092 22.4788 113.529 22.2545C113.965 22.0242 114.308 21.7152 114.556 21.3273C114.805 20.9394 114.929 20.5 114.929 20.0091V18.5273C114.808 18.6061 114.641 18.6788 114.429 18.7455C114.223 18.8061 113.989 18.8636 113.729 18.9182C113.468 18.9667 113.208 19.0121 112.947 19.0545C112.686 19.0909 112.45 19.1242 112.238 19.1545C111.783 19.2212 111.386 19.3273 111.047 19.4727C110.708 19.6182 110.444 19.8152 110.256 20.0636C110.068 20.3061 109.974 20.6091 109.974 20.9727C109.974 21.5 110.165 21.903 110.547 22.1818C110.935 22.4545 111.426 22.5909 112.02 22.5909ZM124.051 16.9273V25H120.179V11.0364H123.87V13.5H124.033C124.342 12.6879 124.861 12.0455 125.588 11.5727C126.315 11.0939 127.197 10.8546 128.233 10.8546C129.203 10.8546 130.048 11.0667 130.77 11.4909C131.491 11.9152 132.051 12.5212 132.451 13.3091C132.851 14.0909 133.051 15.0242 133.051 16.1091V25H129.179V16.8C129.185 15.9455 128.967 15.2788 128.524 14.8C128.082 14.3152 127.473 14.0727 126.697 14.0727C126.176 14.0727 125.715 14.1849 125.315 14.4091C124.921 14.6333 124.612 14.9606 124.388 15.3909C124.17 15.8152 124.058 16.3273 124.051 16.9273ZM138.013 20.9818L138.022 16.3364H138.586L143.058 11.0364H147.504L141.495 18.0546H140.576L138.013 20.9818ZM134.504 25V6.38183H138.376V25H134.504ZM143.231 25L139.122 18.9182L141.704 16.1818L147.767 25H143.231Z" fill="#141313"/>
</svg>
