<svg width="133" height="32" viewBox="0 0 133 32" fill="none" xmlns="http://www.w3.org/2000/svg">
<g clip-path="url(#clip0_41_70)">
<path fill-rule="evenodd" clip-rule="evenodd" d="M31.9999 16L21.3333 26.6667L10.6666 16L15.3715 11.2952L20.0762 16L15.3714 20.7047L16 21.3333L21.3333 16L16 10.6667L21.3333 5.3334L31.9999 16Z" fill="#141313"/>
<path d="M10.6667 6.59067L1.25708 16.0003L10.6667 25.4098L15.3714 20.705L16 21.3336L10.6667 26.6669L0 16.0003L10.6667 5.33359L16 10.6669L15.3714 11.2955L10.6667 6.59067Z" fill="#141313"/>
</g>
<path d="M40.7231 21.184C40.0831 21.184 39.5327 20.96 39.0719 20.512C38.6239 20.0512 38.3999 19.5008 38.3999 18.8608V12.3712C38.3999 11.7312 38.6239 11.1872 39.0719 10.7392C39.5327 10.2784 40.0831 10.048 40.7231 10.048H47.4047C48.0575 10.048 48.6079 10.2784 49.0559 10.7392C49.5167 11.1872 49.7471 11.7312 49.7471 12.3712V18.8608C49.7471 19.5008 49.5167 20.0512 49.0559 20.512C48.6079 20.96 48.0575 21.184 47.4047 21.184H40.7231ZM40.7231 19.6096H47.4047C47.6095 19.6096 47.7823 19.5392 47.9231 19.3984C48.0767 19.2448 48.1535 19.0656 48.1535 18.8608V12.3712C48.1535 12.1664 48.0767 11.9936 47.9231 11.8528C47.7823 11.6992 47.6095 11.6224 47.4047 11.6224H40.7231C40.5183 11.6224 40.3391 11.6992 40.1855 11.8528C40.0447 11.9936 39.9743 12.1664 39.9743 12.3712V18.8608C39.9743 19.0656 40.0447 19.2448 40.1855 19.3984C40.3391 19.5392 40.5183 19.6096 40.7231 19.6096Z" fill="#141313"/>
<path d="M57.0179 21.184L50.8739 10.048H52.7171L57.9395 19.648L63.1619 10.048H65.0051L58.8419 21.184H57.0179Z" fill="#141313"/>
<path d="M68.3606 21.184C67.7206 21.184 67.1702 20.96 66.7094 20.512C66.2614 20.0512 66.0374 19.5008 66.0374 18.8608V12.3712C66.0374 11.7312 66.2614 11.1872 66.7094 10.7392C67.1702 10.2784 67.7206 10.048 68.3606 10.048H75.0422C75.695 10.048 76.2454 10.2784 76.6934 10.7392C77.1542 11.1872 77.3846 11.7312 77.3846 12.3712V16.4032H67.6118V18.8608C67.6118 19.0656 67.6822 19.2448 67.823 19.3984C67.9766 19.5392 68.1558 19.6096 68.3606 19.6096H77.3846V21.184H68.3606ZM67.6118 14.8288H75.791V12.3712C75.791 12.1664 75.7142 11.9936 75.5606 11.8528C75.4198 11.6992 75.247 11.6224 75.0422 11.6224H68.3606C68.1558 11.6224 67.9766 11.6992 67.823 11.8528C67.6822 11.9936 67.6118 12.1664 67.6118 12.3712V14.8288Z" fill="#141313"/>
<path d="M79.2565 21.184V12.3712C79.2565 11.7312 79.4805 11.1872 79.9285 10.7392C80.3893 10.2784 80.9397 10.048 81.5797 10.048H87.8389V11.6224H81.5797C81.3749 11.6224 81.1957 11.6992 81.0421 11.8528C80.9013 11.9936 80.8309 12.1664 80.8309 12.3712V21.184H79.2565Z" fill="#141313"/>
<path d="M91.4047 21.184C90.7647 21.184 90.2143 20.96 89.7535 20.512C89.3055 20.0512 89.0815 19.5008 89.0815 18.8608V6.39999H90.6559V18.8608C90.6559 19.0656 90.7263 19.2448 90.8671 19.3984C91.0207 19.5392 91.1999 19.6096 91.4047 19.6096H93.2863V21.184H91.4047Z" fill="#141313"/>
<path d="M97.011 21.184C96.371 21.184 95.8206 20.96 95.3598 20.512C94.9118 20.0512 94.6878 19.5008 94.6878 18.8608V14.8288H104.441V12.3712C104.441 12.1664 104.365 11.9936 104.211 11.8528C104.07 11.6992 103.897 11.6224 103.693 11.6224H94.6878V10.048H103.693C104.345 10.048 104.896 10.2784 105.344 10.7392C105.805 11.1872 106.035 11.7312 106.035 12.3712V21.184H97.011ZM97.011 19.6096H104.441V16.4032H96.2622V18.8608C96.2622 19.0656 96.3326 19.2448 96.4734 19.3984C96.627 19.5392 96.8062 19.6096 97.011 19.6096Z" fill="#141313"/>
<path d="M109.881 25.6V24.0064H116.832C117.037 24.0064 117.209 23.9296 117.35 23.776C117.504 23.6352 117.581 23.4624 117.581 23.2576V21.184H110.15C109.51 21.184 108.96 20.96 108.499 20.512C108.051 20.0512 107.827 19.5008 107.827 18.8608V10.0864H109.401V18.8608C109.401 19.0656 109.472 19.2448 109.613 19.3984C109.766 19.5392 109.945 19.6096 110.15 19.6096H116.832C117.037 19.6096 117.209 19.5392 117.35 19.3984C117.504 19.2448 117.581 19.0656 117.581 18.8608V10.0864H119.155V23.2576C119.155 23.9104 118.931 24.4608 118.483 24.9088C118.035 25.3696 117.485 25.6 116.832 25.6H109.881Z" fill="#141313"/>
<path d="M123.409 21.184C122.769 21.184 122.219 20.96 121.758 20.512C121.31 20.0512 121.086 19.5008 121.086 18.8608V18.7072H122.66V18.8608C122.66 19.0656 122.731 19.2448 122.872 19.3984C123.025 19.5392 123.204 19.6096 123.409 19.6096H130.091C130.296 19.6096 130.468 19.5392 130.609 19.3984C130.763 19.2448 130.84 19.0656 130.84 18.8608V17.152C130.84 16.9472 130.763 16.7744 130.609 16.6336C130.468 16.48 130.296 16.4032 130.091 16.4032H123.409C122.769 16.4032 122.219 16.1792 121.758 15.7312C121.31 15.2704 121.086 14.72 121.086 14.08V12.3712C121.086 11.7312 121.31 11.1872 121.758 10.7392C122.219 10.2784 122.769 10.048 123.409 10.048H130.091C130.744 10.048 131.294 10.2784 131.742 10.7392C132.203 11.1872 132.433 11.7312 132.433 12.3712V12.5248H130.84V12.3712C130.84 12.1664 130.763 11.9936 130.609 11.8528C130.468 11.6992 130.296 11.6224 130.091 11.6224H123.409C123.204 11.6224 123.025 11.6992 122.872 11.8528C122.731 11.9936 122.66 12.1664 122.66 12.3712V14.08C122.66 14.2848 122.731 14.464 122.872 14.6176C123.025 14.7584 123.204 14.8288 123.409 14.8288H130.091C130.744 14.8288 131.294 15.0592 131.742 15.52C132.203 15.968 132.433 16.512 132.433 17.152V18.8608C132.433 19.5008 132.203 20.0512 131.742 20.512C131.294 20.96 130.744 21.184 130.091 21.184H123.409Z" fill="#141313"/>
<defs>
<clipPath id="clip0_41_70">
<rect width="32" height="32" fill="white"/>
</clipPath>
</defs>
</svg>
