<svg width="122" height="32" viewBox="0 0 122 32" fill="none" xmlns="http://www.w3.org/2000/svg">
<path fill-rule="evenodd" clip-rule="evenodd" d="M13.6 4.80001L13.6 19.2H5.6C4.71634 19.2 4 19.9164 4 20.8L4 27.2C4 28.0837 4.71635 28.8 5.6 28.8H12C12.8836 28.8 13.6 28.0837 13.6 27.2L13.6 19.2H28C28.8836 19.2 29.6 18.4837 29.6 17.6L29.6 4.80001C29.6 3.91636 28.8836 3.20001 28 3.20001L15.2 3.20001C14.3163 3.20001 13.6 3.91636 13.6 4.80001Z" fill="#141313"/>
<path d="M39.0667 25.6V6.39999H43.8026C45.2533 6.39999 46.4053 6.83519 47.2586 7.70559C48.112 8.56745 48.5386 9.71092 48.5386 11.136V13.696C48.5386 15.1125 48.112 16.256 47.2586 17.1264C46.4053 17.9968 45.2533 18.432 43.8026 18.432H42.5226V25.6H39.0667ZM42.5226 14.976H43.8026C44.2122 14.976 44.528 14.8608 44.7498 14.6304C44.9717 14.3915 45.0826 14.08 45.0826 13.696V11.136C45.0826 10.752 44.9717 10.4448 44.7498 10.2144C44.528 9.97545 44.2122 9.85599 43.8026 9.85599H42.5226V14.976Z" fill="#141313"/>
<path d="M48.3068 25.6L51.942 6.39999H55.6796L59.238 25.6H55.7052L55.27 22.6048H52.3004L51.8396 25.6H48.3068ZM52.8124 19.1488H54.758L53.5804 11.0592H54.0412L52.8124 19.1488Z" fill="#141313"/>
<path d="M62.1438 25.6V16.896L58.1246 6.39999H61.6574L64.371 14.5152H63.3982L66.035 6.39999H69.5678L65.5998 16.896V25.6H62.1438Z" fill="#141313"/>
<path d="M74.8766 26.0096C73.4857 26.0096 72.3678 25.5744 71.523 24.704C70.6867 23.8336 70.2686 22.6901 70.2686 21.2736V20.5056H72.7006V21.2736C72.7006 21.9648 72.8969 22.5237 73.2894 22.9504C73.6819 23.3685 74.211 23.5776 74.8766 23.5776C75.5422 23.5776 76.0713 23.3685 76.4638 22.9504C76.8563 22.5237 77.0526 21.9648 77.0526 21.2736V19.6608C77.0526 19.2683 77.0398 18.9611 77.0142 18.7392C76.9886 18.5088 76.9118 18.3253 76.7838 18.1888C76.6558 18.0523 76.4425 17.9243 76.1438 17.8048C75.8451 17.6768 75.4227 17.5275 74.8766 17.3568C73.7246 16.9899 72.8329 16.6827 72.2014 16.4352C71.5699 16.1792 71.1177 15.9104 70.8446 15.6288C70.5715 15.3387 70.4051 14.9632 70.3454 14.5024C70.2942 14.0416 70.2686 13.4144 70.2686 12.6208V10.7264C70.2686 9.30132 70.6867 8.15785 71.523 7.29599C72.3678 6.42559 73.4857 5.99039 74.8766 5.99039C76.2761 5.99039 77.3939 6.42559 78.2302 7.29599C79.0664 8.15785 79.4846 9.30132 79.4846 10.7264V11.4944H77.0526V10.7264C77.0526 10.0352 76.8563 9.48052 76.4638 9.06239C76.0713 8.63572 75.5422 8.42239 74.8766 8.42239C74.211 8.42239 73.6819 8.63572 73.2894 9.06239C72.8969 9.48052 72.7006 10.0352 72.7006 10.7264V12.6208C72.7006 13.0048 72.7134 13.312 72.739 13.5424C72.7731 13.7643 72.8499 13.9477 72.9694 14.0928C73.0974 14.2293 73.3107 14.3573 73.6094 14.4768C73.9166 14.5963 74.339 14.7456 74.8766 14.9248C76.0286 15.2917 76.9203 15.5989 77.5518 15.8464C78.1832 16.0939 78.6355 16.3627 78.9086 16.6528C79.1816 16.9344 79.3438 17.3056 79.395 17.7664C79.4547 18.2272 79.4846 18.8587 79.4846 19.6608V21.2736C79.4846 22.6901 79.0664 23.8336 78.2302 24.704C77.3939 25.5744 76.2761 26.0096 74.8766 26.0096Z" fill="#141313"/>
<path d="M91.132 20.5056V21.2736C91.132 22.6901 90.7138 23.8336 89.8776 24.704C89.0413 25.5744 87.9234 26.0096 86.524 26.0096C85.133 26.0096 84.0152 25.5744 83.1704 24.704C82.3341 23.8336 81.916 22.6901 81.916 21.2736V10.7264C81.916 9.30132 82.3341 8.15785 83.1704 7.29599C84.0152 6.42559 85.133 5.99039 86.524 5.99039C87.9234 5.99039 89.0413 6.42559 89.8776 7.29599C90.7138 8.15785 91.132 9.30132 91.132 10.7264V11.4944H88.7V10.7264C88.7 10.0352 88.5037 9.48052 88.1112 9.06239C87.7186 8.63572 87.1896 8.42239 86.524 8.42239C85.8584 8.42239 85.3293 8.63572 84.9368 9.06239C84.5442 9.48052 84.348 10.0352 84.348 10.7264V21.2736C84.348 21.9648 84.5442 22.5237 84.9368 22.9504C85.3293 23.3685 85.8584 23.5776 86.524 23.5776C87.1896 23.5776 87.7186 23.3685 88.1112 22.9504C88.5037 22.5237 88.7 21.9648 88.7 21.2736V20.5056H91.132Z" fill="#141313"/>
<path d="M91.9866 25.6L95.9801 6.39999H98.5913L102.547 25.6H100.051L99.3593 22.0416H95.1866L94.4826 25.6H91.9866ZM95.5962 19.6096H98.9497L97.1065 9.79199H97.4649L95.5962 19.6096Z" fill="#141313"/>
<path d="M106.88 6.39999V23.168H111.744V25.6H104.448V6.39999H106.88Z" fill="#141313"/>
<path d="M121.356 6.39999V8.83199H115.98V14.592H120.664V17.024H115.98V23.168H121.356V25.6H113.548V6.39999H121.356Z" fill="#141313"/>
</svg>
