<svg width="136" height="32" viewBox="0 0 136 32" fill="none" xmlns="http://www.w3.org/2000/svg">
<g clip-path="url(#clip0_41_51)">
<path d="M32.0001 0H18.0531C17.3403 0 16.9834 0.861714 17.4874 1.36569L30.6344 14.5127C31.1383 15.0167 32.0001 14.6597 32.0001 13.947V0Z" fill="#141313"/>
<path d="M24.371 8.18243H4.4162C2.99076 8.18243 2.27689 9.90586 3.28483 10.9138L21.6396 29.2686C22.6476 30.2766 24.371 29.5627 24.371 28.1373V8.18243Z" fill="#141313"/>
<path fill-rule="evenodd" clip-rule="evenodd" d="M24.371 18.6774V8.18243H13.876C13.4101 10.8895 14.1402 13.83 16.4318 16.1216C18.7234 18.4132 21.6639 19.1433 24.371 18.6774Z" fill="#141313"/>
</g>
<path d="M38.3999 19.4768C38.3999 22.6472 40.9493 24.8044 44.9694 24.8044C48.9569 24.8044 51.7351 22.7779 51.7351 19.5095C51.7351 17.0255 50.3624 15.7835 47.6496 15.1625L44.7407 14.4761C43.3679 14.1493 42.6489 13.5609 42.6489 12.6458C42.6489 11.4365 43.564 10.7174 45.1329 10.7174C46.669 10.7174 47.5842 11.5999 47.6169 12.9726H51.4083C51.3756 9.83493 48.9242 7.74313 45.2963 7.74313C41.5703 7.74313 38.8902 9.63882 38.8902 12.8092C38.8902 15.3913 40.2956 16.764 43.2045 17.4177L46.1134 18.1041C47.5515 18.4309 47.9764 19.0192 47.9764 19.8363C47.9764 21.013 46.9632 21.7647 45.1002 21.7647C43.2699 21.7647 42.224 20.8822 42.1913 19.4768H38.3999Z" fill="#141313"/>
<path d="M58.2194 24.3795V11.5672H61.357V8.2334H58.2194V3.20001H54.2319V8.2334H51.1269V11.5672H54.2319V24.3795H58.2194Z" fill="#141313"/>
<path d="M66.502 24.8044C69.0187 24.8044 71.2085 23.6604 71.8949 21.9935L72.1891 24.3795H75.6863V14.5742C75.6863 10.0964 73.0062 7.74313 68.6592 7.74313C64.2795 7.74313 61.4033 10.031 61.4033 13.5283H64.8024C64.8024 11.8287 66.1098 10.8481 68.4631 10.8481C70.4895 10.8481 71.7969 11.7306 71.7969 13.9205V14.28L66.9596 14.6395C63.1355 14.9337 60.9784 16.7967 60.9784 19.771C60.9784 22.8106 63.0702 24.8044 66.502 24.8044ZM67.8094 21.7974C66.0117 21.7974 65.0312 21.0783 65.0312 19.6075C65.0312 18.3002 65.9791 17.4831 68.4631 17.2543L71.8296 16.9928V17.8426C71.8296 20.3266 70.2607 21.7974 67.8094 21.7974Z" fill="#141313"/>
<path d="M87.6929 8.16803C87.0392 8.00461 86.4836 7.93924 85.928 7.93924C83.7708 7.93924 82.2346 9.01782 81.5483 10.6194L81.3195 8.26608H77.5608V24.3795H81.5483V16.5352C81.5483 13.3975 83.3459 11.8614 86.2221 11.8614H87.6929V8.16803Z" fill="#141313"/>
<path d="M87.1072 19.4768C87.1072 22.6472 89.6565 24.8044 93.6767 24.8044C97.6642 24.8044 100.442 22.7779 100.442 19.5095C100.442 17.0255 99.0696 15.7835 96.3568 15.1625L93.4479 14.4761C92.0752 14.1493 91.3561 13.5609 91.3561 12.6458C91.3561 11.4365 92.2713 10.7174 93.8401 10.7174C95.3763 10.7174 96.2914 11.5999 96.3241 12.9726H100.116C100.083 9.83493 97.6315 7.74313 94.0035 7.74313C90.2775 7.74313 87.5974 9.63882 87.5974 12.8092C87.5974 15.3913 89.0028 16.764 91.9118 17.4177L94.8207 18.1041C96.2588 18.4309 96.6837 19.0192 96.6837 19.8363C96.6837 21.013 95.6704 21.7647 93.8074 21.7647C91.9771 21.7647 90.9312 20.8822 90.8985 19.4768H87.1072Z" fill="#141313"/>
<path d="M112.385 8.2334V16.6986C112.385 19.771 111.176 21.2418 108.659 21.2418C106.436 21.2418 105.227 19.9998 105.227 16.9274V8.2334H101.24V18.3329C101.24 22.2877 103.429 24.8044 107.155 24.8044C109.313 24.8044 111.404 23.7585 112.385 22.2223L112.679 24.3795H116.372V8.2334H112.385Z" fill="#141313"/>
<path d="M118.448 28.8H122.436V22.2223C123.449 23.8565 125.541 24.8044 127.959 24.8044C132.764 24.8044 135.509 21.1437 135.509 16.1103C135.509 11.0443 132.502 7.74313 127.959 7.74313C125.508 7.74313 123.383 8.82172 122.403 10.6847L122.141 8.2334H118.448V28.8ZM122.468 16.3064C122.468 13.3975 124.266 11.3711 127.011 11.3711C129.822 11.3711 131.489 13.4302 131.489 16.3064C131.489 19.1827 129.822 21.2091 127.011 21.2091C124.266 21.2091 122.468 19.2153 122.468 16.3064Z" fill="#141313"/>
<defs>
<clipPath id="clip0_41_51">
<rect width="32" height="32" fill="white"/>
</clipPath>
</defs>
</svg>
