<svg width="166" height="32" viewBox="0 0 166 32" fill="none" xmlns="http://www.w3.org/2000/svg">
<path fill-rule="evenodd" clip-rule="evenodd" d="M5.87438 3.20001V13.3576H9.26023V3.20001H5.87438ZM14.9738 3.20001V18.4363H18.3596V3.20001H14.9738ZM24.2849 13.3576V3.20001H27.6708V13.3576H24.2849ZM16.6668 28.8C10.199 28.8 4.75811 24.4037 3.16931 18.4363H6.71527C8.18903 22.5061 12.0883 25.4142 16.6668 25.4142C21.2452 25.4142 25.1445 22.5061 26.6183 18.4363H30.1642C28.5754 24.4037 23.1345 28.8 16.6668 28.8Z" fill="#141313"/>
<path d="M43.1178 22.768V12.0928H39.0667V9.23199H50.7402V12.0928H46.689V22.768H43.1178Z" fill="#141313"/>
<path d="M55.3963 22.768V9.23199H65.0155V11.9584H58.8331V14.5312H64.6315V17.2384H58.8331V20.0416H65.0155V22.768H55.3963Z" fill="#141313"/>
<path d="M80.1942 22.768L78.9846 19.9648H72.9942L71.7846 22.768H68.2326L74.5494 9.23199H77.3526L83.6885 22.768H80.1942ZM74.127 17.3152H77.8518L75.9894 12.976L74.127 17.3152Z" fill="#141313"/>
<path d="M98.634 9.23199H101.36V22.768H98.2884V15.664L95.6772 20.5216H93.4116L90.8196 15.7792L90.8004 22.768H87.7284V9.23199H90.5124L94.5828 16.9312L98.634 9.23199Z" fill="#141313"/>
<path d="M110.105 22.768V12.0928H106.054V9.23199H117.728V12.0928H113.676V22.768H110.105Z" fill="#141313"/>
<path d="M130.932 22.768L129.722 19.9648H123.732L122.522 22.768H118.97L125.287 9.23199H128.09L134.426 22.768H130.932ZM124.864 17.3152H128.589L126.727 12.976L124.864 17.3152Z" fill="#141313"/>
<path d="M138.427 22.768V9.23199H141.96V19.9072H147.72V22.768H138.427Z" fill="#141313"/>
<path d="M165.786 22.768H161.601L156.148 16.6432V22.768H152.615V9.23199H156.148V15.0496L161.447 9.23199H165.575L159.604 15.664L165.786 22.768Z" fill="#141313"/>
</svg>
